<svg width="100" height="100" fill="none" xmlns="http://www.w3.org/2000/svg"><path d="M96.838 94.974l-1.89-8.5a6.22 6.22 0 00.365-2.1V81.25a6.238 6.238 0 00-7.015-6.202l-2.405-9.796a1.563 1.563 0 00-.76-.993l-13.43-7.46-4.546-22.73a1.562 1.562 0 00-.833-1.092L60.3 29.966l-2.059-2.06a9.375 9.375 0 10-16.592-.203l-11.218 6.904a1.56 1.56 0 00-.697.952L23.63 59.972l-6.444 4.296V60.78a7.81 7.81 0 004.688-12.34v-1.566a6.25 6.25 0 10-12.5 0v1.565a7.811 7.811 0 004.688 12.341v5.571l-3.992 2.66c-.35.234-.592.599-.67 1.012L4.954 93.75h-.07a1.563 1.563 0 000 3.125h90.43a1.562 1.562 0 001.525-1.901zm-85.9-41.85a4.68 4.68 0 011.171-3.097c.252-.285.391-.653.391-1.034v-2.118a3.125 3.125 0 116.25 0v2.118c0 .38.139.748.39 1.034a4.688 4.688 0 11-8.203 3.098zm81.25 28.126v3.125a3.125 3.125 0 11-6.25 0V81.25a3.125 3.125 0 116.25 0zM58.675 32.647l5.567 2.784 2.49 12.454-3.157-.79-2.804-5.606a1.562 1.562 0 00-1.09-.834l-7.179-1.435-2.766-4.15a1.561 1.561 0 00-.6-.53l-2.483-1.241-1.085-4.339 5.762-3.545 6.94 6.94c.118.119.255.217.405.292zM50 17.187a6.245 6.245 0 015.881 8.36l-3.214-3.214a1.563 1.563 0 00-1.923-.226l-6.417 3.949A6.246 6.246 0 0150 17.187zm21.288 59.719l-15.624-12.5a1.563 1.563 0 00-2.374.52l-4.484 8.969-7.422 4.453c-.334.2-.58.518-.693.89l-1.259 4.198-.48-1.203a1.4 1.4 0 00-1.074-.936l-6.25-1.562a1.563 1.563 0 00-1.484.41l-2.697 2.697a1.561 1.561 0 00-.299-.03h-5.273c-.415 0-.812.165-1.105.458l-3.125 3.125a1.564 1.564 0 00-.427.798l-1.312 6.557H8.133l4.219-22.503 4.145-2.763.003-.002 6.004-4.004-1.998 7.995-4.185 2.79a1.562 1.562 0 00-.65.92l-1.562 6.25a1.562 1.562 0 103.026.78l.006-.022 1.416-5.664 4.185-2.79c.323-.215.555-.544.649-.92l9.22-36.884 3.327-2.045v22.924a1.563 1.563 0 003.124 0V42.187l3.126 2.344v7.031c0 .523.26 1.01.695 1.3l3.992 2.661v5.414a1.563 1.563 0 003.125 0v-6.25c0-.522-.261-1.01-.696-1.3l-3.992-2.66V43.75c0-.492-.231-.955-.624-1.25l-5.626-4.219v-5.316l3.716-2.287 1.019 4.076c.11.442.409.814.817 1.018l2.754 1.377 2.895 4.343c.23.344.587.584.993.665l7.063 1.413 2.783 5.566c.204.408.577.706 1.02.817l5.271 1.318 2.945 16.196c.076.417.318.785.67 1.02l4.125 2.75 1.45 8.707a1.563 1.563 0 003.083-.513l-1.562-9.376a1.564 1.564 0 00-.675-1.043l-4.135-2.757-1.011-5.561L83.02 66.66l2.347 9.554a6.245 6.245 0 00-2.555 5.036v3.125a6.261 6.261 0 004.688 6.052v3.323H76.193L71.82 77.715a1.402 1.402 0 00-.531-.81zM65.626 87.5c-.863 0-1.563.7-1.563 1.562v4.688h-3.124v-1.563a1.563 1.563 0 00-3.126 0v1.563h-3.124v-3.125a1.563 1.563 0 00-3.126 0v3.125h-3.124v-9.375a1.563 1.563 0 00-3.126 0v9.375H40.42l1.505-2.258c.286-.428.342-.97.15-1.447l-.779-1.95 2.214-7.38 5.847-3.507.11.218a4.069 4.069 0 003.658 2.261c.862.001 1.562.7 1.563 1.563v3.906a3.906 3.906 0 107.812 0v-3.125a.781.781 0 011.563 0 3.9 3.9 0 006.492 2.92l2.4 8.799h-5.767v-4.688c0-.862-.7-1.562-1.563-1.562zm-12.5-10.938a.961.961 0 01-.864-.533l-.514-1.03 3.474-6.947L68.75 78.876v3.155a.781.781 0 11-1.563 0 3.906 3.906 0 10-7.812 0v3.125a.781.781 0 11-1.563 0V81.25a4.693 4.693 0 00-4.687-4.688zm-27.667 16.73l.457.458h-6.821l1.095-5.48 2.333-2.333H25v6.25c0 .415.165.812.458 1.105zm10.026-9.373l-.824 2.473-1.847.924-3.614-1.807 2.53-2.529 3.755.939zm-5.15 9.83l-2.209-2.209v-3.075l3.989 1.995c.44.22.958.22 1.397 0l3.125-1.563a1.56 1.56 0 00.784-.903l.214-.64 1.235 3.088-2.205 3.308h-6.33zm60.291 0v-3.322a6.215 6.215 0 001.823-.803l.917 4.126h-2.74zm-13.2-59.709c.772.386 1.71.073 2.096-.699a.956.956 0 011.531-.248l.655.654c.61.61 1.599.61 2.21 0l.654-.654a.956.956 0 011.53.248 1.563 1.563 0 002.806-1.375l-.01-.022a4.08 4.08 0 00-6.085-1.45 4.08 4.08 0 00-6.085 1.45 1.563 1.563 0 00.698 2.096z" fill="#1C1C1C"/><path d="M17.224 31.303a4.092 4.092 0 00-2.997 2.203 1.563 1.563 0 002.785 1.42l.01-.022a.956.956 0 011.531-.248l.655.654c.61.61 1.599.61 2.21 0l.654-.654a.956.956 0 011.53.248 1.562 1.562 0 102.806-1.376l-.01-.022a4.08 4.08 0 00-6.085-1.449c-.886-.657-2-.93-3.09-.754zm68.015-5.076c.771.386 1.71.073 2.096-.698a.956.956 0 011.53-.248l.655.654c.61.61 1.6.61 2.21 0l.654-.654a.956.956 0 011.531.248 1.562 1.562 0 102.795-1.398 4.08 4.08 0 00-6.085-1.449 4.08 4.08 0 00-6.085 1.45 1.563 1.563 0 00.699 2.095zM8.676 27.79c.772.386 1.71.073 2.097-.699a.956.956 0 011.53-.248l.655.654c.61.61 1.599.61 2.21 0l.654-.654a.956.956 0 011.53.248 1.563 1.563 0 002.796-1.397 4.08 4.08 0 00-6.085-1.45 4.08 4.08 0 00-6.085 1.45 1.563 1.563 0 00.698 2.096zM50 10.938c.863 0 1.563-.7 1.563-1.563V6.25a1.563 1.563 0 00-3.126 0v3.125c0 .863.7 1.563 1.563 1.563zm-9.53 2.041a1.562 1.562 0 102.528-1.836l-1.837-2.53a1.563 1.563 0 10-2.528 1.838l1.837 2.528zm-7.3 6.633l2.973.966a1.563 1.563 0 00.97-2.97l-.004-.002-2.973-.966a1.563 1.563 0 00-.983 2.967l.018.006zm.483 10.701c.164 0 .327-.026.483-.077l2.973-.967a1.562 1.562 0 10-.965-2.972l-2.972.966a1.563 1.563 0 00.482 3.049zm29.237-1.044l2.973.966a1.562 1.562 0 00.984-2.966l-.019-.006-2.972-.966a1.563 1.563 0 10-.965 2.972zm.484-8.614c.164 0 .327-.026.483-.077l2.972-.966a1.563 1.563 0 00-.965-2.971l-2.973.965a1.563 1.563 0 00.482 3.049zm-6.027-7.33a1.562 1.562 0 002.183-.346l1.837-2.528a1.563 1.563 0 00-2.528-1.838l-1.837 2.529a1.562 1.562 0 00.344 2.182h.001z" fill="#1C1C1C"/></svg>