<svg width="100" height="100" fill="none" xmlns="http://www.w3.org/2000/svg"><g clip-path="url(#clip0)" fill="#1A94AE"><path d="M24.564 30.06C11.044 30.06.046 41.057.046 54.577c0 8.394 3.993 17.419 11.868 26.824a85.03 85.03 0 003.455 3.874c-5.085 1.388-8.138 3.882-8.138 6.792 0 5.152 8.93 7.932 17.332 7.932 8.403 0 17.333-2.78 17.333-7.932 0-2.908-3.052-5.402-8.134-6.79 2.03-2.144 4.215-4.665 6.287-7.478a1.466 1.466 0 10-2.36-1.74c-2.503 3.396-5.212 6.38-7.575 8.751-.27.139-.498.358-.64.635a83.075 83.075 0 01-4.91 4.467c-1-.835-2.754-2.357-4.844-4.41a1.467 1.467 0 00-.735-.731c-6.642-6.68-16.007-18.223-16.007-30.194 0-11.902 9.684-21.586 21.586-21.586S46.15 42.676 46.15 54.578c0 5.198-1.771 10.811-5.264 16.684a1.466 1.466 0 102.52 1.5c3.767-6.333 5.677-12.451 5.677-18.184 0-13.52-11-24.519-24.519-24.519zm-.897 62.903a1.463 1.463 0 001.795 0c.18-.139 2.63-2.05 5.896-5.243 4.946 1.008 7.605 2.95 7.605 4.348 0 1.044-1.43 2.276-3.734 3.214-2.825 1.151-6.613 1.786-10.665 1.786-8.79 0-14.4-2.962-14.4-5 0-1.4 2.66-3.34 7.609-4.35 3.284 3.213 5.738 5.125 5.894 5.245z"/><path d="M24.564 43.917c-2.32 0-4.525.732-6.378 2.117a1.467 1.467 0 001.756 2.35 7.661 7.661 0 014.622-1.534c4.261 0 7.728 3.466 7.728 7.728 0 4.26-3.467 7.727-7.728 7.727-4.261 0-7.728-3.466-7.728-7.727 0-.728.1-1.447.299-2.137a1.467 1.467 0 00-2.819-.809 10.678 10.678 0 00-.412 2.946c0 5.878 4.782 10.66 10.66 10.66s10.66-4.782 10.66-10.66c0-5.879-4.782-10.661-10.66-10.661zm63.905-1.315c.746-.8 1.514-1.663 2.285-2.584 6.105-7.292 9.2-14.301 9.2-20.835C99.954 8.606 91.35 0 80.772 0a19.156 19.156 0 00-17.675 11.716 1.466 1.466 0 102.7 1.143 16.23 16.23 0 0114.975-9.926c8.96 0 16.25 7.29 16.25 16.25 0 12.118-12.721 23.728-16.25 26.715a64.037 64.037 0 01-3.438-3.14 1.464 1.464 0 00-.652-.649c-5.063-5.097-12.16-13.86-12.16-22.925a1.466 1.466 0 10-2.934 0c0 6.533 3.096 13.542 9.201 20.834.77.92 1.539 1.782 2.284 2.583-3.78 1.136-5.962 3.069-5.962 5.397 0 1.963 1.593 3.693 4.485 4.872 2.475 1.008 5.733 1.564 9.176 1.564 3.442 0 6.701-.556 9.176-1.564 2.891-1.179 4.484-2.91 4.484-4.872 0-2.324-2.184-4.259-5.962-5.396zM80.77 51.5c-6.942 0-10.728-2.315-10.728-3.504 0-.774 1.722-2.192 5.4-2.974 2.475 2.408 4.312 3.839 4.43 3.931a1.464 1.464 0 001.796 0c.118-.092 1.955-1.523 4.43-3.93 1.638.349 3.058.86 4.051 1.465.844.515 1.349 1.079 1.349 1.508 0 1.19-3.787 3.504-10.728 3.504z"/><path d="M80.771 10.65c-4.705 0-8.533 3.828-8.533 8.534 0 4.705 3.828 8.532 8.533 8.532s8.533-3.827 8.533-8.532-3.828-8.533-8.533-8.533zm0 14.133a5.606 5.606 0 01-5.6-5.6c0-3.087 2.512-5.6 5.6-5.6 3.088 0 5.6 2.512 5.6 5.6 0 3.088-2.512 5.6-5.6 5.6zM61.75 46.531h-.67c-.487 0-.977.032-1.457.096a1.467 1.467 0 00.387 2.908 8.15 8.15 0 011.07-.07h.67a1.466 1.466 0 100-2.934zm-4.848 43.996h-.007l-1.937.008a1.467 1.467 0 00.007 2.933h.006l1.937-.009a1.467 1.467 0 00-.006-2.932zm6.588-25.002h-1.937a1.466 1.466 0 000 2.933h1.937a1.466 1.466 0 100-2.933zm-7.77-16.006a1.467 1.467 0 00-2.072-.084 11.03 11.03 0 00-1.478 1.67 1.466 1.466 0 102.382 1.712 8.103 8.103 0 011.084-1.226 1.466 1.466 0 00.084-2.072zm8.929 40.972h-.007l-1.936.009a1.467 1.467 0 00.006 2.933h.007l1.936-.009a1.466 1.466 0 00-.006-2.933zm-15.494.071h-.007l-1.937.009a1.467 1.467 0 00.007 2.932h.006l1.937-.008a1.467 1.467 0 00-.006-2.933zm7.648-26.269a8.045 8.045 0 01-1.288-1.009 1.467 1.467 0 00-2.033 2.114c.537.516 1.127.979 1.756 1.375a1.465 1.465 0 101.565-2.48zm-3.605-5.253a8.1 8.1 0 01-.148-1.545v-.081c.01-.81-.64-1.474-1.45-1.484h-.017c-.802 0-1.456.645-1.466 1.45v.115c0 .708.068 1.417.202 2.107a1.467 1.467 0 102.879-.561zm18.039 6.485H69.3a1.467 1.467 0 000 2.933h1.937a1.466 1.466 0 100-2.933zM94.78 68.51a13.953 13.953 0 00-1.795-1.203 1.466 1.466 0 10-1.44 2.555c.495.28.971.599 1.417.95a1.464 1.464 0 002.06-.242 1.466 1.466 0 00-.242-2.06zm-5.443 23.032a1.467 1.467 0 00-1.653-1.252c-.48.066-.972.101-1.463.103l-.274.002a1.467 1.467 0 00.007 2.933h.007l.274-.002a14.01 14.01 0 001.85-.13 1.466 1.466 0 001.252-1.654zm6.472-4.124a1.466 1.466 0 00-2.073-.05c-.412.392-.857.755-1.324 1.079a1.467 1.467 0 001.67 2.41c.592-.41 1.156-.87 1.677-1.365a1.466 1.466 0 00.05-2.074zm2.854-7.121a1.467 1.467 0 00-1.713 1.17 10.988 10.988 0 01-.445 1.645 1.467 1.467 0 002.763.985c.241-.677.431-1.38.565-2.088a1.467 1.467 0 00-1.17-1.712zm.871-4.714a13.84 13.84 0 00-.76-2.028 1.467 1.467 0 00-2.657 1.24 10.9 10.9 0 01.598 1.597 1.467 1.467 0 002.819-.81zm-20.55-10.058h-1.936a1.467 1.467 0 000 2.933h1.936a1.466 1.466 0 100-2.933zm-6.588 24.931h-.007l-1.936.009a1.467 1.467 0 00.006 2.933h.007l1.937-.01a1.467 1.467 0 00-.007-2.932zm14.4-24.916c-.207-.01-.418-.015-.624-.015h-1.377a1.466 1.466 0 000 2.933h1.377a11.111 11.111 0 01.56.013 1.466 1.466 0 00.064-2.932zm-6.653 24.88h-.007l-1.936.01a1.467 1.467 0 00.006 2.932h.007l1.937-.008a1.467 1.467 0 00-.007-2.933z"/></g><defs><clipPath id="clip0"><path fill="#fff" d="M0 0h100v100H0z"/></clipPath></defs></svg>