<svg width="100" height="100" fill="none" xmlns="http://www.w3.org/2000/svg"><path d="M81.151 43.189h-5.448a2.835 2.835 0 00-2.68-1.923H70.03c-1.243 0-2.3.806-2.68 1.923h-.724a18.583 18.583 0 001.935-6.09h2.41A4.033 4.033 0 0075 33.071v-4.679a4.01 4.01 0 00-.157-1.098h.416a4.574 4.574 0 004.568-4.57v-.186a4.574 4.574 0 00-4.568-4.569h-3.274L66.947 7.296C64.822 2.796 60.587 0 55.897 0H44.764c-4.691 0-8.925 2.796-11.05 7.296L28.676 17.97h-3.935a4.574 4.574 0 00-4.568 4.568v.187a4.574 4.574 0 004.568 4.569h.416c-.1.35-.156.717-.156 1.098v4.679a4.033 4.033 0 004.028 4.028h2.424a18.58 18.58 0 001.935 6.09h-.747a2.835 2.835 0 00-2.679-1.923h-2.995a2.836 2.836 0 00-2.68 1.923H18.85a6.355 6.355 0 00-6.348 6.347v9.833a6.354 6.354 0 005.95 6.334 16.75 16.75 0 00-1.092 5.94v22.926a1.475 1.475 0 00-.01.162l.001 3.804c0 .809.656 1.465 1.465 1.465h62.36c.81 0 1.465-.656 1.465-1.465V79.773a1.465 1.465 0 10-2.93 0v11.84l-7.401-6.137a5.997 5.997 0 01-2.176-4.628v-22.47c5.638 1.866 9.578 7.2 9.578 13.264v1.73a1.465 1.465 0 102.93 0v-1.73c0-2.076-.385-4.08-1.087-5.94a6.355 6.355 0 005.944-6.333v-9.833c0-3.5-2.847-6.347-6.347-6.347zm-13.954 2.93v4.635h-3.02a2.835 2.835 0 00-2.833 2.832v1.183h-3.072v-3.402a18.845 18.845 0 006.463-5.249h2.462zm-37.34 12.263v22.466a5.996 5.996 0 01-2.175 4.628l-7.393 6.13V71.642c0-6.043 3.942-11.389 9.568-13.26zm-9.569 38.66v-1.63l9.264-7.68a8.917 8.917 0 003.235-6.884l.007-27.164h2.922v27.164a11.84 11.84 0 01-4.294 9.14l-8.51 7.054h-2.623zm13.004-4.799a14.76 14.76 0 005.354-11.395v-23.15h3.195a8.29 8.29 0 006.694 6.783v12.358a1.465 1.465 0 102.93 0V64.481a8.29 8.29 0 006.694-6.783h3.186v23.15a14.76 14.76 0 005.354 11.395l5.79 4.8H27.502l5.79-4.8zm16.715-38.95a18.66 18.66 0 005.335-.776v3.824A5.349 5.349 0 0150 61.684a5.349 5.349 0 01-5.343-5.343v-3.828a18.66 18.66 0 005.35.78zm22.062-24.9v4.678a1.1 1.1 0 01-1.099 1.098h-2.239v-6.875h2.24a1.1 1.1 0 011.098 1.098zM36.364 8.546C38 5.082 41.22 2.93 44.765 2.93h11.131c3.546 0 6.765 2.152 8.401 5.617l4.448 9.423H31.916l4.448-9.423zM23.102 22.725v-.187c0-.903.736-1.639 1.64-1.639h50.516c.904 0 1.64.736 1.64 1.64v.186c0 .904-.736 1.64-1.64 1.64h-22.07a1.465 1.465 0 100 2.929h12.614v7.274c0 8.71-7.086 15.795-15.795 15.795-8.71 0-15.795-7.085-15.795-15.795v-7.274h12.596a1.465 1.465 0 100-2.93H24.74a1.641 1.641 0 01-1.639-1.639zm4.828 10.346v-4.679a1.1 1.1 0 011.1-1.098h2.252v6.875h-2.253a1.1 1.1 0 01-1.099-1.098zM41.728 51.36v3.409h-3.082v-1.183a2.835 2.835 0 00-2.832-2.832h-3.02v-4.636h2.484a18.85 18.85 0 006.45 5.242zm-11.864-7.164v9.255c-.002.045-.007.09-.007.135v1.738c-.97.261-1.903.607-2.792 1.028V44.196h2.8zM18.85 62.786a3.422 3.422 0 01-3.418-3.417v-9.833a3.422 3.422 0 013.418-3.418h5.286v12.005a17.1 17.1 0 00-4.25 4.664H18.85zm51.59 24.945l9.272 7.688v1.623H77.08l-8.51-7.054a11.838 11.838 0 01-4.295-9.14V53.684h2.923l.007 27.164a8.917 8.917 0 003.235 6.883zm-.312-34.28v-9.255h2.799v12.15a16.726 16.726 0 00-2.793-1.024v-1.736c0-.045-.004-.09-.006-.135zm14.442 5.918a3.422 3.422 0 01-3.418 3.418h-1.03a17.04 17.04 0 00-4.265-4.676V46.118h5.295a3.422 3.422 0 013.418 3.418v9.833z" fill="#1C1C1C"/></svg>