<svg width="100" height="100" viewBox="0 0 100 100" fill="none" xmlns="http://www.w3.org/2000/svg">
<path d="M81.151 43.1887H75.7031C75.3231 42.0725 74.2668 41.266 73.0236 41.266H70.0289C68.7858 41.266 67.7297 42.0725 67.3496 43.1887H66.6254C67.5986 41.3201 68.2654 39.2682 68.56 37.099H70.9707C73.192 37.099 74.9992 35.2918 74.9992 33.0705V28.3922C74.9992 28.0109 74.9424 27.6434 74.843 27.2936H75.2586C77.7777 27.2936 79.8274 25.2441 79.8274 22.7248V22.5383C79.8274 20.0191 77.7779 17.9695 75.2586 17.9695H71.985L66.9465 7.29609C64.8219 2.7957 60.5877 0 55.8961 0H44.7652C40.0736 0 35.8395 2.7957 33.715 7.2959L28.6764 17.9695H24.7414C22.2223 17.9695 20.1727 20.0189 20.1727 22.5383V22.7248C20.1727 25.2439 22.2221 27.2936 24.7414 27.2936H25.1572C25.0578 27.6434 25.001 28.0109 25.001 28.3922V33.0705C25.001 35.2918 26.808 37.099 29.0293 37.099H31.4535C31.7479 39.268 32.4149 41.3201 33.3881 43.1887H32.6414C32.2613 42.0725 31.2053 41.266 29.9621 41.266H26.9674C25.7242 41.266 24.668 42.0725 24.2879 43.1887H18.8488C15.3488 43.1887 12.5014 46.0361 12.5014 49.5361V59.3689C12.5014 62.7352 15.1356 65.4963 18.4506 65.7025C17.7455 67.5641 17.3588 69.5688 17.3588 71.6422V94.5687C17.3529 94.6221 17.3498 94.6762 17.3498 94.7305L17.3502 98.535C17.3502 99.3439 18.0061 99.9996 18.815 99.9996H81.1754C81.9844 99.9996 82.6403 99.3439 82.6403 98.535V98.5146C82.6403 98.5121 82.6406 98.5096 82.6406 98.507V79.7729C82.6406 78.9637 81.985 78.308 81.1758 78.308C80.3666 78.308 79.7109 78.9637 79.7109 79.7729V91.6129L72.3086 85.476C70.9262 84.3291 70.1334 82.6422 70.1334 80.848V58.3777C75.7705 60.2441 79.7109 65.5777 79.7109 71.6424V73.3723C79.7109 74.1814 80.3666 74.8371 81.1758 74.8371C81.985 74.8371 82.6406 74.1814 82.6406 73.3723V71.6424C82.6406 69.5662 82.2561 67.5621 81.5541 65.7023C84.8668 65.4936 87.4984 62.7334 87.4984 59.3689V49.5361C87.4984 46.0361 84.651 43.1887 81.151 43.1887V43.1887ZM67.1969 46.1184V50.7543H64.1766C62.6151 50.7543 61.3445 52.0248 61.3445 53.5863V54.7686H58.2719V51.3666C60.8 50.1178 63.008 48.3158 64.735 46.1184H67.1969ZM29.8572 58.382V80.8484C29.8572 82.6428 29.0645 84.3295 27.682 85.4764L20.2887 91.6059V71.6424C20.2885 65.5992 24.2307 60.2533 29.8572 58.382V58.382ZM20.2885 97.0424V95.4111L29.552 87.7314L29.5522 87.7312C31.6078 86.0262 32.7869 83.5172 32.7869 80.8482L32.7938 53.684H35.7164V80.8482C35.7164 84.3932 34.1512 87.7244 31.4225 89.9875L22.9117 97.0424H20.2885ZM33.2924 92.243C36.6947 89.4213 38.6461 85.268 38.6461 80.8482V57.6982H41.8412C42.4113 61.1381 45.1106 63.866 48.5352 64.4809V76.8393C48.5352 77.6484 49.1908 78.3041 50 78.3041C50.8092 78.3041 51.4649 77.6484 51.4649 76.8393V64.4809C54.8895 63.866 57.5887 61.1381 58.1588 57.6982H61.3447V80.8482C61.3447 85.268 63.2961 89.4213 66.6988 92.2432L72.4885 97.0424H27.5023L33.2924 92.243ZM50.0066 53.2928C51.86 53.2928 53.6506 53.0209 55.3422 52.517V56.3412C55.3422 59.2869 52.9455 61.6836 49.9998 61.6836C47.0541 61.6836 44.6574 59.2869 44.6574 56.3412V52.5129C46.3533 53.0195 48.1484 53.2928 50.0066 53.2928V53.2928ZM72.0693 28.3922V33.0705C72.0693 33.6766 71.5766 34.1693 70.9705 34.1693H68.7315V27.2936H70.9705C71.5764 27.2936 72.0693 27.7865 72.0693 28.3922ZM36.3643 8.54668C37.9998 5.08203 41.219 2.92969 44.7652 2.92969H55.8961C59.4424 2.92969 62.6615 5.08203 64.2971 8.54668L68.7451 17.9697H31.916L36.3643 8.54668ZM23.1023 22.725V22.5385C23.1023 21.6348 23.8377 20.8994 24.7414 20.8994H75.2584C76.1621 20.8994 76.8975 21.6348 76.8975 22.5385V22.725C76.8975 23.6287 76.1621 24.3641 75.2584 24.3641H53.1889C52.3797 24.3641 51.724 25.0197 51.724 25.8289C51.724 26.6381 52.3797 27.2938 53.1889 27.2938H65.8018V34.5684C65.8018 43.2777 58.7162 50.3633 50.0066 50.3633C41.2971 50.3633 34.2115 43.2777 34.2115 34.5684V27.2938H46.8076C47.6168 27.2938 48.2725 26.6381 48.2725 25.8289C48.2725 25.0197 47.6168 24.3641 46.8076 24.3641H24.7412C23.8375 24.3639 23.1023 23.6287 23.1023 22.725V22.725ZM27.9305 33.0705V28.3922C27.9305 27.7863 28.4232 27.2936 29.0291 27.2936H31.2816V34.1693H29.0291C28.4234 34.1693 27.9305 33.6766 27.9305 33.0705ZM41.7279 51.36V54.7686H38.6461V53.5863C38.6461 52.0248 37.3756 50.7543 35.8141 50.7543H32.7938V46.1184H35.2781C37.0022 48.3119 39.2055 50.1113 41.7279 51.36ZM29.8641 44.1957V53.4508C29.8619 53.4959 29.8572 53.5406 29.8572 53.5863V55.3238C28.8867 55.5854 27.9539 55.9313 27.0649 56.3522V44.1957H29.8641ZM18.8488 62.7867C16.9643 62.7867 15.4311 61.2535 15.4311 59.3689V49.5361C15.4311 47.6516 16.9643 46.1184 18.8488 46.1184H24.135V58.1232C22.4398 59.401 20.9975 60.9865 19.8852 62.7867H18.8488ZM70.4385 87.7314L79.7111 95.4188L79.7109 97.0424H77.0791L68.5688 89.9877C65.8395 87.7244 64.2744 84.3932 64.2744 80.8482V53.684H67.1971L67.2039 80.8482C67.2037 83.5172 68.3828 86.0262 70.4385 87.7314V87.7314ZM70.1266 53.4508V44.1957H72.9258V56.3459C72.0369 55.927 71.1039 55.583 70.1334 55.3223V53.5863C70.1334 53.5406 70.1287 53.4961 70.1266 53.4508V53.4508ZM84.5688 59.3689C84.5688 61.2535 83.0356 62.7867 81.151 62.7867H80.1217C79.0068 60.9793 77.559 59.39 75.8557 58.1107V46.1184H81.151C83.0356 46.1184 84.5688 47.6516 84.5688 49.5361V59.3689Z" fill="#1C1C1C"/>
</svg>
