<svg width="96" height="33" fill="none" xmlns="http://www.w3.org/2000/svg"><path d="M57.66 2.34l-4.74 14.42L47.666 33H32.122l.764-1.595 4.38-8.984 8.917-18.643h-5.346c-4.702.03-7.734.285-9.097.764-.404.15-.733.225-.988.225-.45 0-.674-.427-.674-1.28 0-.81.322-1.214.966-1.214l3.37.09h2.223l10.377-.022H57.66z" fill="#1A94AE"/><path d="M2.297 9.126h9.187c1.459 0 2.662.474 3.61 1.422s1.422 2.26 1.422 3.937c0 1.678-.474 2.99-1.422 3.938-.51.51-1.24.839-2.188.984l4.266 8.422h-2.735L10.5 19.735H4.812v8.094H2.297V9.126zm2.515 2.078v6.453h6.454c.729 0 1.349-.255 1.859-.765s.766-1.313.766-2.407c0-1.02-.292-1.822-.875-2.406-.584-.583-1.276-.875-2.079-.875H4.814zm14.329 7.328c0-3.062.875-5.469 2.625-7.219 1.53-1.53 3.39-2.296 5.578-2.296 2.187 0 4.047.765 5.578 2.296 1.75 1.75 2.625 4.157 2.625 7.22 0 3.062-.875 5.468-2.625 7.218-1.531 1.531-3.39 2.297-5.578 2.297s-4.047-.766-5.578-2.297c-1.75-1.75-2.625-4.156-2.625-7.219zm8.203-7.437c-1.386 0-2.625.547-3.719 1.64-1.24 1.24-1.86 3.172-1.86 5.797 0 2.625.62 4.558 1.86 5.797 1.094 1.094 2.333 1.64 3.719 1.64 1.385 0 2.625-.546 3.718-1.64 1.24-1.24 1.86-3.172 1.86-5.797 0-2.625-.62-4.557-1.86-5.797-1.093-1.093-2.333-1.64-3.718-1.64zm11.922-1.86h2.515V22.36c0 1.021.328 1.86.985 2.516.802.802 1.968 1.203 3.5 1.203 1.53 0 2.698-.4 3.5-1.203.656-.656.984-1.495.984-2.516V9.235h2.516V22.47c0 1.604-.51 2.917-1.532 3.937-1.166 1.167-2.99 1.75-5.468 1.75-2.48 0-4.302-.583-5.47-1.75-1.02-1.02-1.53-2.333-1.53-3.937V9.235zm16.734 0h14.984v2.079H64.75v16.624h-2.516V11.313H56V9.235zm17.61 0h12.03v2.079h-9.515v5.796h8.86v2.079h-8.86v6.671h10.063v2.079h-12.58V9.235z" fill="#fff"/></svg>