<svg width="77" height="42" fill="none" xmlns="http://www.w3.org/2000/svg"><path d="M47.79 9.42L35.582 36.5h-1.048L46.61 9.802H30.08V8.773h17.71v.648z" fill="#fff"/><path d="M7.793 26.263H5.318v5.496H1.354V15.831h6.644c2.023 0 3.6.42 4.73 1.258 1.13.83 1.696 2.006 1.696 3.528 0 1.13-.237 2.064-.711 2.802-.465.73-1.226 1.327-2.283 1.791l3.61 6.385v.164h-4.267l-2.98-5.496zm-2.475-3.185h2.68c1.65 0 2.475-.68 2.475-2.037 0-1.34-.862-2.01-2.584-2.01h-2.57v4.047zm26.018 1.039c0 1.558-.305 2.935-.916 4.129a6.506 6.506 0 01-2.625 2.761c-1.13.647-2.415.971-3.856.971-1.449 0-2.743-.319-3.882-.957a6.57 6.57 0 01-2.625-2.72c-.62-1.186-.935-2.548-.944-4.089v-.71c0-1.568.306-2.95.916-4.143.611-1.194 1.481-2.115 2.612-2.762 1.13-.656 2.429-.984 3.896-.984 1.44 0 2.72.319 3.842.957 1.13.638 2.005 1.554 2.625 2.748.629 1.185.948 2.552.957 4.101v.698zm-3.965-.63c0-1.512-.305-2.674-.916-3.485-.601-.812-1.45-1.217-2.543-1.217-1.13 0-1.991.405-2.584 1.216-.583.812-.875 1.974-.875 3.487v.629c0 1.485.3 2.643.902 3.472.602.83 1.463 1.245 2.584 1.245 1.058 0 1.892-.41 2.502-1.231.62-.82.93-1.996.93-3.527v-.588zm19.524-7.655V26.14c0 1.814-.588 3.24-1.764 4.28-1.176 1.038-2.812 1.558-4.908 1.558-2.088 0-3.728-.52-4.922-1.559-1.194-1.039-1.791-2.46-1.791-4.265V15.832h3.965v10.513c.054 1.64.97 2.461 2.748 2.461.884 0 1.554-.205 2.01-.615.464-.41.697-1.085.697-2.023V15.832h3.965zM62.85 19.03h-5.168v12.728h-3.965V19.031h-5.072v-3.2H62.85v3.2zm12.373 6.097h-6.576v3.46h7.738v3.171H64.682V15.831h11.716v3.2h-7.751v2.912h6.576v3.185z" fill="#fff"/></svg>