<svg width="79" height="78" viewBox="0 0 79 78" fill="none" xmlns="http://www.w3.org/2000/svg">
<g clip-path="url(#clip0)">
<path d="M74.8526 39.5816H58.633V36.7233C58.633 35.6539 57.763 34.7838 56.6935 34.7838H43.5882C42.5187 34.7838 41.6487 35.6539 41.6487 36.7233V39.5816H39.5253V28.9431C39.5253 26.8576 37.8287 25.1608 35.7432 25.1608H31.1198V4.56477C31.1198 3.31475 30.103 2.29773 28.8528 2.29773H27.0856V1.78288C27.0855 0.799907 26.2856 0 25.3025 0H16.4335C15.4506 0 14.6507 0.799907 14.6507 1.78288V2.29773H12.8835C11.6335 2.29773 10.6165 3.31475 10.6165 4.56477V25.1608H4.60961C2.52411 25.1608 0.827194 26.8576 0.827194 28.9431V40.7137C0.827194 41.3461 1.33975 41.8588 1.97232 41.8588C2.60488 41.8588 3.11744 41.3461 3.11744 40.7137V28.9431C3.11744 28.1204 3.7868 27.451 4.60961 27.451H35.7431C36.5657 27.451 37.2349 28.1204 37.2349 28.9431V68.9338C37.2349 69.7565 36.5656 70.4258 35.7431 70.4258H4.60961C3.7868 70.4258 3.11744 69.7565 3.11744 68.9338V45.2942C3.11744 44.6618 2.60488 44.1491 1.97232 44.1491C1.33975 44.1491 0.827194 44.6618 0.827194 45.2942V68.9337C0.827194 71.0192 2.52396 72.7159 4.60961 72.7159H6.93803V76.8509C6.93803 77.4833 7.45059 77.996 8.08315 77.996C8.71572 77.996 9.22828 77.4833 9.22828 76.8509V72.7159H22.1089V74.6796C22.1089 76.5104 23.5984 77.9998 25.429 77.9998H74.8526C76.6832 77.9998 78.1726 76.5104 78.1726 74.6796V42.9017C78.1726 41.071 76.6834 39.5816 74.8526 39.5816ZM16.9409 2.29025H24.7951V4.59546H16.9409V2.29025ZM12.9067 4.58797H14.6507V5.10282C14.6507 6.08595 15.4504 6.8857 16.4335 6.8857H25.3025C26.2856 6.8857 27.0855 6.08595 27.0855 5.10282V4.58797H28.8294V25.1608H12.9067V4.58797ZM66.5878 41.8718V75.5475H64.2965V41.8718H66.5878ZM39.5252 68.9338V41.8718H50.1408C50.7734 41.8718 51.2859 41.3591 51.2859 40.7267C51.2859 40.0943 50.7734 39.5816 50.1408 39.5816H43.9388V37.0741H56.3426V39.5816H54.7213C54.0887 39.5816 53.5762 40.0943 53.5762 40.7267C53.5762 41.3591 54.0887 41.8718 54.7213 41.8718H62.0063V75.7096H33.4147V72.7159H35.7431C37.8286 72.7161 39.5252 71.0193 39.5252 68.9338ZM24.3992 74.6797V72.7161H31.1244V75.7098H25.429C24.861 75.7098 24.3992 75.2476 24.3992 74.6797ZM75.8824 74.6797C75.8824 75.2477 75.4205 75.7098 74.8526 75.7098H68.8781V41.8718H74.8526C75.4205 41.8718 75.8824 42.3338 75.8824 42.9018V74.6797Z" fill="black"/>
<path d="M44.7604 67.1859H53.2216C54.6373 67.1859 55.789 66.0342 55.789 64.6185V61.2864C55.789 59.8707 54.6373 58.719 53.2216 58.719H44.7604C43.3449 58.719 42.1932 59.8707 42.1932 61.2864V64.6185C42.1932 66.0342 43.3449 67.1859 44.7604 67.1859ZM44.4834 61.2864C44.4834 61.1335 44.6077 61.0092 44.7604 61.0092H53.2216C53.3745 61.0092 53.4988 61.1335 53.4988 61.2864V64.6185C53.4988 64.7714 53.3745 64.8956 53.2216 64.8956H44.7604C44.6077 64.8956 44.4834 64.7714 44.4834 64.6185V61.2864Z" fill="black"/>
<path d="M10.5409 64.5185V33.358C10.5409 32.7256 10.0283 32.2129 9.39578 32.2129C8.76321 32.2129 8.25066 32.7256 8.25066 33.358V64.5186C8.25066 65.1511 8.76321 65.6638 9.39578 65.6638C10.0283 65.6636 10.5409 65.1509 10.5409 64.5185Z" fill="black"/>
<path d="M17.728 64.5185V33.358C17.728 32.7256 17.2154 32.2129 16.5829 32.2129C15.9503 32.2129 15.4377 32.7256 15.4377 33.358V64.5186C15.4377 65.1511 15.9503 65.6638 16.5829 65.6638C17.2153 65.6636 17.728 65.1509 17.728 64.5185Z" fill="black"/>
<path d="M24.9149 64.5185V33.358C24.9149 32.7256 24.4024 32.2129 23.7698 32.2129C23.1373 32.2129 22.6247 32.7256 22.6247 33.358V64.5186C22.6247 65.1511 23.1373 65.6638 23.7698 65.6638C24.4024 65.6638 24.9149 65.1509 24.9149 64.5185Z" fill="black"/>
<path d="M32.1019 64.5185V33.358C32.1019 32.7256 31.5893 32.2129 30.9568 32.2129C30.3242 32.2129 29.8116 32.7256 29.8116 33.358V64.5186C29.8116 65.1511 30.3242 65.6638 30.9568 65.6638C31.5893 65.6636 32.1019 65.1509 32.1019 64.5185Z" fill="black"/>
</g>
<defs>
<clipPath id="clip0">
<rect width="78" height="78" fill="white" transform="translate(0.5)"/>
</clipPath>
</defs>
</svg>
