<svg width="79" height="78" fill="none" xmlns="http://www.w3.org/2000/svg"><g clip-path="url(#clip0)" fill="#000"><path d="M39.5 0a39.059 39.059 0 00-24.828 8.923 1.143 1.143 0 001.455 1.761 36.768 36.768 0 0120.458-8.282l-4.89 5.711a7.333 7.333 0 00-1.762 4.767v3.924a5.03 5.03 0 01-1.837 3.893 7.325 7.325 0 00-.94.928 7.389 7.389 0 00-3.397-.822c-4.1 0-7.435 3.335-7.435 7.435 0 4.544 4.81 11.022 6.284 12.899a1.464 1.464 0 002.303 0c.772-.984 2.462-3.233 3.895-5.805a20.081 20.081 0 003.75 4.127 1.143 1.143 0 00.325 2.238h1.747c.212 0 .41-.058.58-.159.354.409.532.933.498 1.493a2.072 2.072 0 01-1.05 1.698 19.003 19.003 0 00-5.953 5.364l-1.53 2.114a1.143 1.143 0 001.85 1.34l1.53-2.115a16.734 16.734 0 015.243-4.723 4.394 4.394 0 002.001-5.113c.142.065.3.1.466.1.47.002.932.074 1.374.215a1.142 1.142 0 10.693-2.178 6.847 6.847 0 00-2.065-.321c-.547 0-1.005.385-1.116.9a4.4 4.4 0 00-.914-.922l-1.528-1.143A17.73 17.73 0 0130 32.942c.709-1.624 1.194-3.261 1.194-4.704a7.411 7.411 0 00-2.186-5.26c.166-.185.347-.358.54-.517a7.305 7.305 0 002.67-5.657V12.88c0-1.203.43-2.367 1.212-3.28l6.263-7.314a36.512 36.512 0 0121.072 6.8l-.391 1.02a14.183 14.183 0 01-5.363 6.735 3.039 3.039 0 00-1.326 2.178 3.038 3.038 0 00.796 2.421l.253.273a8.985 8.985 0 011.835 9.371 3.404 3.404 0 00.305 3.048c.318.505.75.907 1.253 1.183a7.393 7.393 0 00-1.403 4.341 1.142 1.142 0 102.285 0c0-2.84 2.31-5.15 5.15-5.15 2.84 0 5.15 2.31 5.15 5.15 0 2.79-2.644 7.29-5.15 10.643-1.323-1.78-2.716-3.9-3.709-5.903a1.142 1.142 0 00-2.158.65 4.397 4.397 0 01-1.486-.375l-1.609-.724a4.319 4.319 0 00-5.453 1.69l-1.74 2.857c-.48.787-.8 1.628-.968 2.486a1.143 1.143 0 00-.136 1.23 7.466 7.466 0 002.298 5.579l2.022 1.954a1.94 1.94 0 01-.294 3.026 8.268 8.268 0 00-3.745 6.062 4.836 4.836 0 01-1.104 2.586l-3.493 4.17a36.86 36.86 0 01-10.84-.697v-1.928a4.993 4.993 0 00-2.905-4.528L23.529 66a4.997 4.997 0 00-3.98-.075l-3.384 1.4C8 60.587 2.785 50.39 2.785 39c0-2.82.322-5.604.947-8.304a15.637 15.637 0 006.916-1.984l1.05-.589c.007-.005.012-.006.013-.007a.07.07 0 01.028.02l-.002.017-.863 3.272a9.72 9.72 0 001.49 8.148l2.115 2.964c.558.78.72 1.794.433 2.71l-.607 1.942a11.279 11.279 0 005.434 13.294 4.006 4.006 0 005.119-1.18l.985-1.36a1.143 1.143 0 00-1.851-1.34l-.986 1.361a1.714 1.714 0 01-2.189.505 8.99 8.99 0 01-4.331-10.598l.607-1.942a5.396 5.396 0 00-.754-4.72l-2.114-2.963a7.442 7.442 0 01-1.142-6.238l.863-3.272a2.308 2.308 0 00-.821-2.418 2.308 2.308 0 00-2.547-.187l-1.049.589a13.354 13.354 0 01-5.174 1.637 36.627 36.627 0 017.984-14.061 1.143 1.143 0 00-1.69-1.538A38.907 38.907 0 00.5 39c0 21.555 17.444 39 39 39 21.555 0 39-17.444 39-39 0-21.555-17.444-39-39-39zM23.76 38.882c-2.506-3.353-5.15-7.854-5.15-10.644 0-2.84 2.31-5.15 5.15-5.15a5.155 5.155 0 015.149 5.15c0 2.79-2.644 7.29-5.15 10.644zm-3.337 29.155a2.704 2.704 0 012.154.04l5.31 2.434a2.702 2.702 0 011.571 2.45v1.358a36.595 36.595 0 01-11.198-5.387l2.163-.895zM74.735 49.33L69.7 45.829c1.07-2.08 1.895-4.292 1.895-6.173a7.55 7.55 0 00-.02-.53c.443.27.876.554 1.297.852l3.202 2.266a36.48 36.48 0 01-1.338 7.087zM45.93 75.15l1.899-2.266a7.114 7.114 0 001.624-3.804 5.992 5.992 0 012.713-4.393c2.284-1.477 2.601-4.697.642-6.589l-2.022-1.954a5.204 5.204 0 01-1.552-3.044c.145.01.296.014.407.014a1.143 1.143 0 00.005-2.285c-.071 0-.142-.003-.213-.006.126-.392.3-.775.522-1.141l1.74-2.858a2.032 2.032 0 012.565-.794l1.608.724a6.703 6.703 0 003.551.538c1.375 2.365 2.898 4.384 3.588 5.262a1.464 1.464 0 002.303 0 48.431 48.431 0 003.267-4.722l5.412 3.762c-4.437 12.111-15.081 21.254-28.06 23.556zm30.28-35.608l-2.019-1.43a24.93 24.93 0 00-3.549-2.093 7.44 7.44 0 00-6.483-3.799 7.392 7.392 0 00-4.126 1.253l-.35-.029a1.146 1.146 0 01-.977-1.55 11.256 11.256 0 00-2.299-11.739l-.253-.273a.748.748 0 01-.199-.602.749.749 0 01.33-.543 16.456 16.456 0 006.223-7.814l.151-.393c8.453 6.888 13.72 17.39 13.552 29.011z"/><path d="M23.76 24.626a3.616 3.616 0 00-3.613 3.612 3.616 3.616 0 003.612 3.612 3.616 3.616 0 003.612-3.612 3.616 3.616 0 00-3.612-3.612zm0 4.939a1.328 1.328 0 01-1.327-1.327c0-.732.595-1.327 1.326-1.327a1.328 1.328 0 010 2.653zm44.01 10.091a3.616 3.616 0 00-3.611-3.612 3.616 3.616 0 00-3.612 3.612 3.616 3.616 0 003.612 3.612 3.616 3.616 0 003.611-3.612zm-4.938 0a1.328 1.328 0 012.653 0c0 .732-.595 1.327-1.326 1.327a1.328 1.328 0 01-1.327-1.327zm-33.588 2.041a1.143 1.143 0 100-2.286h-.915a1.142 1.142 0 100 2.285h.915zm14.562.553a1.143 1.143 0 00-1.851 1.34c.274.379.487.795.633 1.237a1.143 1.143 0 002.17-.718 6.822 6.822 0 00-.952-1.86zm.082 4.708c-.6.197-.926.842-.73 1.442.219.666.538 1.292.948 1.862a1.142 1.142 0 101.854-1.336 4.533 4.533 0 01-.63-1.238 1.143 1.143 0 00-1.442-.73zm11.137 3.872h-1.746a1.142 1.142 0 100 2.285h1.746a1.142 1.142 0 100-2.285zm4.563 0h-.914a1.143 1.143 0 100 2.285h.914a1.142 1.142 0 100-2.285z"/></g><defs><clipPath id="clip0"><path fill="#fff" transform="translate(.5)" d="M0 0h78v78H0z"/></clipPath></defs></svg>