<svg width="78" height="75" fill="none" xmlns="http://www.w3.org/2000/svg"><path d="M38.717 40.412h.517c4.733-.078 8.561-1.677 11.388-4.737 6.218-6.74 5.185-18.296 5.072-19.398C55.29 7.999 51.218 4.038 47.86 2.19 45.356.808 42.432.062 39.17 0h-.275c-1.793 0-5.314.28-8.69 2.128-3.392 1.848-7.527 5.808-7.93 14.149-.114 1.102-1.148 12.658 5.071 19.398 2.81 3.06 6.639 4.66 11.371 4.737zm-12.13-23.747c0-.047.016-.093.016-.124.533-11.136 8.755-12.332 12.276-12.332h.194c4.36.093 11.775 1.802 12.276 12.332 0 .046 0 .093.016.124.016.109 1.146 10.67-3.99 16.23-2.035 2.205-4.749 3.293-8.319 3.324h-.161c-3.553-.031-6.283-1.119-8.302-3.324-5.12-5.53-4.022-16.137-4.006-16.23z" fill="#000"/><path d="M72.169 59.578v-.047c0-.124-.016-.248-.016-.388-.097-3.075-.307-10.266-7.317-12.565-.049-.016-.113-.031-.162-.047-7.285-1.786-13.342-5.824-13.406-5.87-.986-.668-2.342-.435-3.037.512-.694.948-.452 2.252.533 2.92.275.186 6.703 4.488 14.747 6.476 3.764 1.29 4.184 5.157 4.297 8.698 0 .14 0 .264.016.388.016 1.398-.08 3.557-.34 4.8-2.616 1.428-12.873 6.367-28.476 6.367-15.539 0-25.86-4.954-28.493-6.383-.258-1.243-.371-3.401-.339-4.8 0-.123.016-.248.016-.388.113-3.54.533-7.408 4.297-8.697 8.044-1.988 14.472-6.306 14.747-6.477.985-.667 1.227-1.972.533-2.92-.695-.947-2.051-1.18-3.037-.512-.064.047-6.09 4.085-13.406 5.87a2.057 2.057 0 00-.162.047c-7.01 2.315-7.22 9.506-7.317 12.565 0 .14 0 .264-.016.389v.046c-.016.808-.032 4.954.824 7.036.161.403.452.745.84.978.484.31 12.098 7.424 31.53 7.424 19.43 0 31.044-7.129 31.529-7.424a2.1 2.1 0 00.84-.978c.807-2.066.791-6.213.775-7.02z" fill="#000"/></svg>