<svg width="79" height="78" viewBox="0 0 79 78" fill="none" xmlns="http://www.w3.org/2000/svg">
<g clip-path="url(#clip0)">
<path d="M39.5 0C30.4518 0 21.6343 3.1689 14.6716 8.92277C14.1852 9.32481 14.1168 10.0449 14.5188 10.5314C14.9206 11.0178 15.6408 11.0864 16.1274 10.6843C21.9311 5.88824 29.1042 3.00026 36.5852 2.40185L31.6948 8.11322C30.5586 9.44013 29.933 11.1328 29.933 12.8796V16.8037C29.933 18.3163 29.2633 19.7354 28.0955 20.697C27.7532 20.979 27.4389 21.2893 27.1553 21.6252C26.1367 21.0999 24.9819 20.8031 23.7592 20.8031C19.6597 20.8031 16.3244 24.1384 16.3244 28.238C16.3244 32.7816 21.1336 39.2596 22.6078 41.1369C23.1948 41.8842 24.3246 41.883 24.9106 41.1368C25.6835 40.1526 27.3731 37.904 28.8056 35.3323C29.8551 36.8724 31.1237 38.2697 32.5551 39.459C32.0831 39.5995 31.7388 40.0365 31.7388 40.5542C31.7388 41.1854 32.2504 41.6968 32.8814 41.6968H34.6276C34.8398 41.6968 35.0385 41.6389 35.2088 41.538C35.5619 41.9465 35.7402 42.4707 35.7065 43.031C35.6634 43.7504 35.2804 44.3692 34.6558 44.7289C32.2996 46.0851 30.2968 47.8897 28.7026 50.0926L27.1725 52.2073C26.8026 52.7184 26.9172 53.4327 27.4283 53.8028C27.9385 54.1721 28.6531 54.0593 29.0238 53.5468L30.5539 51.4322C31.9575 49.4927 33.7211 47.9036 35.7958 46.7094C37.0794 45.9702 37.8987 44.6465 37.9874 43.1678C38.0198 42.6278 37.9528 42.0967 37.7971 41.5967C37.9392 41.6607 38.0968 41.6965 38.2627 41.6969C38.7326 41.6982 39.1952 41.7699 39.6373 41.9107C40.2386 42.1022 40.8811 41.7698 41.0725 41.1685C41.264 40.5673 40.9316 39.9246 40.3303 39.7332C39.6618 39.5204 38.9572 39.4118 38.2654 39.4118C37.718 39.4118 37.2601 39.7971 37.1487 40.3118C36.8951 39.966 36.5886 39.6546 36.2348 39.39L34.7067 38.247C32.8062 36.8256 31.1878 34.9993 30 32.9417C30.7089 31.3184 31.1936 29.6808 31.1936 28.2381C31.1936 26.1853 30.3574 24.3243 29.0076 22.9776C29.1741 22.7931 29.3545 22.6205 29.548 22.4611C31.2446 21.0638 32.2178 19.0018 32.2178 16.8038V12.8796C32.2178 11.6775 32.6485 10.5126 33.4302 9.59948L39.6926 2.28577C47.5381 2.32629 54.8093 4.84027 60.7648 9.08609L60.3738 10.1068C59.3172 12.8653 57.4629 15.1942 55.0109 16.8413C54.2703 17.339 53.7869 18.1327 53.6849 19.0189C53.5828 19.9049 53.8727 20.7876 54.4806 21.4404L54.7344 21.7131C57.0977 24.2513 57.8007 27.842 56.5695 31.0844C56.1835 32.1013 56.2944 33.2122 56.8743 34.1323C57.1924 34.6372 57.6234 35.0395 58.1266 35.3147C57.2442 36.5371 56.7238 38.0369 56.7238 39.6561C56.7238 40.2873 57.2352 40.7987 57.8664 40.7987C58.4976 40.7987 59.009 40.2873 59.009 39.6561C59.009 36.8166 61.3191 34.5066 64.1587 34.5066C66.9982 34.5066 69.3083 36.8166 69.3083 39.6561C69.3083 42.446 66.6646 46.9462 64.1597 50.2989C62.8356 48.5198 61.4427 46.3989 60.4503 44.3957C60.1703 43.8304 59.4845 43.5986 58.9193 43.879C58.4717 44.1008 58.2334 44.5764 58.2925 45.0455C57.7816 45.0086 57.2771 44.8829 56.8056 44.6707L55.1973 43.9469C53.2173 43.0557 50.8732 43.7822 49.7442 45.6361L48.0035 48.4936C47.5243 49.2805 47.2033 50.122 47.0358 50.9797C46.763 51.3159 46.6941 51.7952 46.9004 52.2093C46.8465 54.2495 47.6339 56.2779 49.1979 57.7889L51.2203 59.7428C52.1183 60.6103 51.976 62.0894 50.9255 62.7685C48.8202 64.1294 47.4554 66.3392 47.181 68.8313C47.0759 69.7864 46.6943 70.6805 46.0771 71.4169L42.5836 75.5866C38.9569 75.8896 35.2924 75.6566 31.7436 74.8905V72.9615C31.7436 71.0201 30.6033 69.243 28.8385 68.434L23.5289 65.9997C22.2745 65.4251 20.8239 65.3975 19.5488 65.9254L16.1654 67.3256C7.99897 60.586 2.78516 50.3904 2.78516 39C2.78516 36.1794 3.10691 33.3956 3.73197 30.6956C6.15454 30.5816 8.52867 29.9031 10.6485 28.7122L11.6976 28.123C11.7053 28.1185 11.7102 28.1167 11.7107 28.1161C11.7204 28.1185 11.7366 28.1313 11.7395 28.1361C11.7395 28.1361 11.7396 28.1412 11.7366 28.1533L10.8737 31.4252C10.1322 34.2367 10.6756 37.2066 12.3647 39.5734L14.4792 42.5367C15.0366 43.3179 15.1984 44.3311 14.912 45.247L14.3048 47.1891C12.6933 52.3427 14.9786 57.9336 19.7386 60.4828C21.491 61.4215 23.6922 60.915 24.8579 59.3039L25.8433 57.9421C26.2132 57.431 26.0986 56.7165 25.5874 56.3466C25.0764 55.9766 24.3618 56.0913 23.9919 56.6026L23.0065 57.9644C22.508 58.6531 21.5669 58.8696 20.8173 58.4685C17.0227 56.4364 15.201 51.9795 16.4856 47.8711L17.0928 45.9291C17.5916 44.3342 17.3098 42.5697 16.339 41.2094L14.2245 38.2462C12.9314 36.4341 12.5154 34.1605 13.083 32.008L13.9459 28.736C14.1832 27.8363 13.8609 26.887 13.1249 26.3177C12.3888 25.7482 11.3891 25.6749 10.578 26.1306L9.52911 26.7199C7.93316 27.6166 6.1678 28.1713 4.35506 28.3574C5.92085 23.1786 8.62769 18.3737 12.3389 14.2958C12.7637 13.8292 12.7295 13.1064 12.2629 12.6817C11.7964 12.2573 11.0739 12.2911 10.6488 12.7577C4.104 19.9496 0.5 29.2695 0.5 39C0.5 60.5547 17.9435 78 39.5 78C61.0548 78 78.5 60.5563 78.5 39C78.5 17.4452 61.0563 0 39.5 0V0ZM23.7592 38.8822C21.2538 35.5285 18.6096 31.0279 18.6096 28.238C18.6096 25.3984 20.9197 23.0883 23.7592 23.0883C26.5988 23.0883 28.9088 25.3984 28.9088 28.238C28.9088 31.0282 26.2645 35.5288 23.7592 38.8822ZM20.4226 68.0369C21.1126 67.7511 21.8979 67.7662 22.5767 68.0771L27.8864 70.5114C28.8414 70.9492 29.4584 71.9111 29.4584 72.9617V74.3194C25.3963 73.1628 21.6191 71.3228 18.2599 68.932L20.4226 68.0369ZM74.7354 49.3309L69.6992 45.8293C70.7696 43.7492 71.5935 41.5371 71.5935 39.6561C71.5935 39.4781 71.5871 39.3016 71.5748 39.1266C72.017 39.3959 72.4497 39.6802 72.8712 39.9785L76.0729 42.2442C75.8584 44.682 75.4047 47.052 74.7354 49.3309ZM45.9297 75.1512L47.8289 72.8846C48.7365 71.8014 49.2981 70.4863 49.4526 69.0813C49.6514 67.2755 50.6404 65.6739 52.1662 64.6876C54.4495 63.2114 54.767 59.9914 52.808 58.0993L50.7856 56.1454C49.9125 55.302 49.3876 54.2266 49.2339 53.1012C49.379 53.1104 49.5302 53.115 49.6408 53.115C50.269 53.115 50.7801 52.607 50.7832 51.978C50.7864 51.347 50.2774 50.8328 49.6462 50.8298C49.575 50.8295 49.504 50.8274 49.4331 50.8239C49.5585 50.4317 49.7322 50.0487 49.9552 49.6827L51.6959 46.825C52.2269 45.9534 53.3296 45.6128 54.2595 46.0308L55.8678 46.7546C56.9808 47.2557 58.2147 47.4391 59.4191 47.2931C60.7943 49.6583 62.3173 51.6768 63.0074 52.5554C63.5945 53.3022 64.7236 53.3011 65.3101 52.5549C65.9722 51.7119 67.3075 49.9403 68.5774 47.8327L73.989 51.5953C69.5524 63.7062 58.908 72.8493 45.9297 75.1512ZM76.2109 39.5425L74.1911 38.1132C73.0709 37.3204 71.8785 36.6173 70.642 36.0199C69.3664 33.7548 66.9383 32.2215 64.1588 32.2215C62.6336 32.2215 61.214 32.6832 60.0327 33.4743L59.6827 33.4452C58.9229 33.3819 58.435 32.6092 58.7061 31.8956C60.2485 27.8341 59.3676 23.3357 56.4073 20.1561L56.1535 19.8833C55.9463 19.6609 55.9403 19.4103 55.9553 19.2805C55.9702 19.1507 56.033 18.9078 56.2855 18.7381C59.1304 16.827 61.2823 14.125 62.5082 10.9241L62.659 10.5305C71.1116 17.4194 76.3797 27.921 76.2109 39.5425Z" fill="black"/>
<path d="M23.7592 24.6262C21.7676 24.6262 20.1475 26.2465 20.1475 28.238C20.1475 30.2294 21.7678 31.8498 23.7592 31.8498C25.7507 31.8498 27.371 30.2294 27.371 28.238C27.371 26.2465 25.7508 24.6262 23.7592 24.6262ZM23.7592 29.5646C23.0277 29.5646 22.4326 28.9695 22.4326 28.238C22.4326 27.5064 23.0278 26.9114 23.7592 26.9114C24.4906 26.9114 25.0858 27.5064 25.0858 28.238C25.0858 28.9695 24.4908 29.5646 23.7592 29.5646Z" fill="black"/>
<path d="M67.7704 39.6562C67.7704 37.6648 66.1501 36.0444 64.1586 36.0444C62.1672 36.0444 60.5469 37.6648 60.5469 39.6562C60.5469 41.6478 62.1672 43.2681 64.1586 43.2681C66.1501 43.2681 67.7704 41.6478 67.7704 39.6562ZM62.832 39.6562C62.832 38.9246 63.4271 38.3296 64.1586 38.3296C64.8902 38.3296 65.4853 38.9246 65.4853 39.6562C65.4853 40.3878 64.8902 40.983 64.1586 40.983C63.4271 40.983 62.832 40.3876 62.832 39.6562Z" fill="black"/>
<path d="M29.2436 41.6965C29.8746 41.6965 30.3862 41.1851 30.3862 40.554C30.3862 39.9228 29.8746 39.4114 29.2436 39.4114H28.3295C27.6985 39.4114 27.187 39.9228 27.187 40.554C27.187 41.1851 27.6985 41.6965 28.3295 41.6965H29.2436Z" fill="black"/>
<path d="M43.8057 42.2499C43.4357 41.7388 42.7213 41.6247 42.2102 41.9942C41.6991 42.3643 41.5847 43.0785 41.9546 43.5897C42.2288 43.9686 42.4419 44.3848 42.5882 44.8266C42.7862 45.4247 43.4319 45.7509 44.0319 45.5524C44.6311 45.354 44.9559 44.7078 44.7577 44.1086C44.5377 43.4441 44.2175 42.8187 43.8057 42.2499Z" fill="black"/>
<path d="M43.8883 46.9582C43.2886 47.1548 42.962 47.8003 43.1585 48.3999C43.377 49.0655 43.6955 49.6918 44.1058 50.2616C44.4751 50.7744 45.189 50.8895 45.7007 50.521C46.2127 50.1522 46.329 49.4383 45.9601 48.9261C45.6871 48.5471 45.4751 48.1304 45.33 47.6879C45.1335 47.0883 44.4874 46.7619 43.8883 46.9582Z" fill="black"/>
<path d="M55.0247 50.8298H53.2786C52.6474 50.8298 52.136 51.3413 52.136 51.9724C52.136 52.6036 52.6474 53.115 53.2786 53.115H55.0247C55.6559 53.115 56.1673 52.6036 56.1673 51.9724C56.1673 51.3413 55.6559 50.8298 55.0247 50.8298Z" fill="black"/>
<path d="M59.5884 50.8298H58.6743C58.0432 50.8298 57.5317 51.3413 57.5317 51.9724C57.5317 52.6036 58.0432 53.115 58.6743 53.115H59.5884C60.2195 53.115 60.731 52.6036 60.731 51.9724C60.731 51.3413 60.2195 50.8298 59.5884 50.8298Z" fill="black"/>
</g>
<defs>
<clipPath id="clip0">
<rect width="78" height="78" fill="white" transform="translate(0.5)"/>
</clipPath>
</defs>
</svg>
