<svg width="79" height="78" fill="none" xmlns="http://www.w3.org/2000/svg"><g clip-path="url(#clip0)" fill="#000"><path d="M74.853 39.582h-16.22v-2.859c0-1.07-.87-1.94-1.94-1.94H43.588c-1.07 0-1.94.87-1.94 1.94v2.859h-2.123V28.943a3.786 3.786 0 00-3.782-3.782H31.12V4.565a2.27 2.27 0 00-2.267-2.267h-1.767v-.515C27.086.8 26.286 0 25.302 0h-8.869c-.982 0-1.782.8-1.782 1.783v.515h-1.768a2.27 2.27 0 00-2.266 2.267V25.16H4.61a3.787 3.787 0 00-3.783 3.782v11.77a1.145 1.145 0 102.29 0v-11.77c0-.823.67-1.492 1.493-1.492h31.133c.823 0 1.492.67 1.492 1.492v39.99c0 .823-.67 1.493-1.492 1.493H4.61c-.823 0-1.493-.67-1.493-1.492v-23.64a1.145 1.145 0 10-2.29 0v23.64a3.787 3.787 0 003.783 3.782h2.328v4.135a1.145 1.145 0 102.29 0v-4.135h12.88v1.964c0 1.83 1.49 3.32 3.321 3.32h49.424c1.83 0 3.32-1.49 3.32-3.32V42.902c0-1.831-1.49-3.32-3.32-3.32zM16.94 2.29h7.854v2.305H16.94V2.29zm-4.034 2.298h1.744v.515c0 .983.8 1.783 1.782 1.783h8.87c.983 0 1.782-.8 1.782-1.783v-.515h1.744v20.573H12.907V4.588zm53.68 37.284v33.675h-2.29V41.873h2.29zm-27.06 27.062V41.872h10.616a1.145 1.145 0 100-2.29H43.94v-2.508h12.404v2.508H54.72a1.145 1.145 0 100 2.29h7.285V75.71h-28.59v-2.994h2.328a3.786 3.786 0 003.782-3.782zM24.4 74.68v-1.964h6.725v2.994H25.43c-.568 0-1.03-.462-1.03-1.03zm51.483 0c0 .568-.462 1.03-1.03 1.03h-5.974V41.872h5.975c.568 0 1.03.462 1.03 1.03V74.68z"/><path d="M44.76 67.186h8.462a2.57 2.57 0 002.567-2.568v-3.332a2.57 2.57 0 00-2.567-2.567H44.76a2.57 2.57 0 00-2.567 2.567v3.332a2.57 2.57 0 002.567 2.568zm-.277-5.9c0-.153.125-.277.277-.277h8.462c.152 0 .277.124.277.277v3.332a.277.277 0 01-.277.278H44.76a.277.277 0 01-.277-.278v-3.332zM10.54 64.519V33.358a1.145 1.145 0 10-2.29 0v31.16a1.145 1.145 0 102.29 0zm7.188 0V33.358a1.145 1.145 0 10-2.29 0v31.16a1.145 1.145 0 102.29 0zm7.187 0V33.358a1.145 1.145 0 10-2.29 0v31.16a1.145 1.145 0 102.29 0zm7.187 0V33.358a1.145 1.145 0 10-2.29 0v31.16a1.145 1.145 0 102.29 0z"/></g><defs><clipPath id="clip0"><path fill="#fff" transform="translate(.5)" d="M0 0h78v78H0z"/></clipPath></defs></svg>