<svg width="100" height="100" viewBox="0 0 100 100" fill="none" xmlns="http://www.w3.org/2000/svg">
<path d="M96.8379 94.9735L94.9488 86.4737C95.1898 85.8003 95.3129 85.0901 95.3125 84.3749V81.2499C95.3191 77.8048 92.5316 75.0065 89.0863 74.9999C88.8229 74.9993 88.5598 75.0155 88.2984 75.0483L85.8926 65.2522C85.7887 64.8302 85.5139 64.4702 85.1338 64.2591L71.7029 56.7981L67.1572 34.0684C67.0627 33.5956 66.7551 33.193 66.3238 32.9774L60.3006 29.9657L58.2422 27.9065C60.7092 23.3544 59.0189 17.6641 54.4668 15.1971C49.9146 12.7302 44.2244 14.4204 41.7574 18.9725C40.2861 21.6874 40.2459 24.9528 41.6504 27.703L30.432 34.6067C30.0842 34.8206 29.8338 35.1622 29.735 35.5585L23.6314 59.9725L17.1875 64.2678V60.7811C21.4145 59.919 24.1422 55.7934 23.2799 51.5665C23.0488 50.4333 22.5689 49.3657 21.875 48.4405V46.8749C21.875 43.4231 19.0768 40.6249 15.625 40.6249C12.1732 40.6249 9.375 43.4231 9.375 46.8749V48.4395C6.78594 51.8901 7.48438 56.7864 10.935 59.3755C11.8605 60.0698 12.9287 60.5501 14.0625 60.7811V66.3522L10.0707 69.0124C9.72051 69.2458 9.4793 69.6106 9.40176 70.0243L4.95313 93.7499H4.88281C4.01992 93.7499 3.32031 94.4495 3.32031 95.3124C3.32031 96.1753 4.01992 96.8749 4.88281 96.8749H95.3125C96.1754 96.8749 96.875 96.1755 96.875 95.3124C96.875 95.1985 96.8627 95.0848 96.8379 94.9735ZM10.9375 53.1249C10.9375 51.9839 11.3541 50.8823 12.1094 50.027C12.3611 49.7415 12.5 49.3739 12.5 48.9932V46.8749C12.5 45.1489 13.899 43.7499 15.625 43.7499C17.351 43.7499 18.75 45.1489 18.75 46.8749V48.9932C18.75 49.3739 18.8889 49.7415 19.1406 50.027C20.8529 51.9686 20.6672 54.9307 18.7254 56.6432C16.7836 58.3557 13.8217 58.1696 12.1094 56.228C11.3535 55.371 10.9369 54.2675 10.9375 53.1249ZM92.1875 81.2499V84.3749C92.1875 86.1009 90.7885 87.4999 89.0625 87.4999C87.3365 87.4999 85.9375 86.1009 85.9375 84.3749V81.2499C85.9375 79.5239 87.3365 78.1249 89.0625 78.1249C90.7885 78.1249 92.1875 79.5239 92.1875 81.2499ZM58.6762 32.6473L64.2426 35.4305L66.7334 47.8852L63.576 47.0958L60.7723 41.4886C60.5566 41.0573 60.1541 40.7497 59.6812 40.6552L52.5033 39.2198L49.7373 35.0706C49.5865 34.8444 49.3793 34.6614 49.1361 34.5399L46.6539 33.2987L45.5691 28.9602L51.3309 25.4149L58.2705 32.3548C58.3891 32.4735 58.5262 32.5723 58.6762 32.6473ZM50 17.1874C53.4492 17.1848 56.2475 19.979 56.25 23.4284C56.2506 24.1505 56.1258 24.8673 55.8814 25.5468L52.6674 22.3327C52.1559 21.8212 51.36 21.7278 50.7438 22.1069L44.3268 26.0557C42.8787 22.9245 44.2432 19.2124 47.3744 17.7643C48.1975 17.3837 49.0934 17.1868 50 17.1874ZM71.2885 76.9055L55.6635 64.4055C54.9897 63.8665 54.0064 63.9757 53.4672 64.6495C53.3984 64.7354 53.3391 64.8284 53.2898 64.9268L48.8059 73.895L41.384 78.3481C41.0502 78.5485 40.8033 78.8661 40.6914 79.2389L39.4322 83.4356L38.9512 82.2327C38.9123 82.1143 38.8074 81.8485 38.5449 81.619C38.2805 81.3878 38.0008 81.3196 37.8783 81.2971L31.6283 79.7346C31.0959 79.6011 30.5324 79.7567 30.1439 80.1448L27.4471 82.8417C27.3486 82.8223 27.2486 82.8126 27.1484 82.8124H21.875C21.4605 82.8124 21.0631 82.977 20.7701 83.27L17.6451 86.395C17.4271 86.6132 17.2783 86.8909 17.2178 87.1934L15.9064 93.7499H8.13281L12.352 71.2473L16.4971 68.4839L16.4996 68.4823L22.5041 64.4784L20.5057 72.4725L16.3207 75.2624C15.9973 75.478 15.766 75.8063 15.6717 76.1835L14.1092 82.4335C13.8939 83.2692 14.3969 84.1212 15.2326 84.3362C16.0684 84.5512 16.9201 84.0485 17.1354 83.2128C17.1371 83.2055 17.1391 83.1983 17.1408 83.1911L18.5568 77.527L22.7418 74.7372C23.0652 74.5216 23.2965 74.1932 23.3908 73.8161L32.6115 36.9333L35.9375 34.8876V57.8124C35.9375 58.6753 36.6371 59.3749 37.5 59.3749C38.3629 59.3749 39.0625 58.6753 39.0625 57.8124V42.1874L42.1875 44.5311V51.5624C42.1875 52.0848 42.4486 52.5725 42.8832 52.8624L46.875 55.5235V60.9374C46.875 61.8003 47.5746 62.4999 48.4375 62.4999C49.3004 62.4999 50 61.8003 50 60.9374V54.6874C50 54.1649 49.7389 53.6772 49.3043 53.3874L45.3125 50.7262V43.7499C45.3125 43.2581 45.0809 42.795 44.6875 42.4999L39.0625 38.2811V32.9645L42.7777 30.6782L43.7967 34.7538C43.9072 35.1964 44.2057 35.5684 44.6137 35.7723L47.3676 37.1493L50.2625 41.4917C50.4924 41.8364 50.8498 42.0759 51.2561 42.1571L58.3193 43.5696L61.1025 49.136C61.3064 49.544 61.6785 49.8425 62.1211 49.953L67.393 51.271L70.3377 67.4667C70.4137 67.8837 70.6557 68.252 71.0082 68.4872L75.1326 71.2366L76.5836 79.944C76.709 80.697 77.3598 81.2489 78.123 81.2499C78.2098 81.2499 78.2963 81.2427 78.3818 81.2286C79.233 81.0868 79.8082 80.2819 79.6664 79.4307C79.6664 79.4305 79.6664 79.4305 79.6664 79.4303L78.1039 70.0553C78.0326 69.6294 77.7885 69.2518 77.4293 69.0122L73.2938 66.2552L72.2826 60.694L83.0201 66.66L85.3668 76.2141C83.7617 77.3899 82.8131 79.2602 82.8125 81.2499V84.3749C82.8162 87.2237 84.7426 89.711 87.5 90.427V93.7499H76.1934L71.8199 77.7147C71.7949 77.6071 71.7445 77.4481 71.6369 77.2792C71.5186 77.0934 71.3809 76.9741 71.2885 76.9055ZM65.625 87.4999C64.7621 87.4999 64.0625 88.1995 64.0625 89.0624V93.7499H60.9375V92.1874C60.9375 91.3245 60.2379 90.6249 59.375 90.6249C58.5121 90.6249 57.8125 91.3245 57.8125 92.1874V93.7499H54.6875V90.6249C54.6875 89.762 53.9879 89.0624 53.125 89.0624C52.2621 89.0624 51.5625 89.762 51.5625 90.6249V93.7499H48.4375V84.3749C48.4375 83.512 47.7379 82.8124 46.875 82.8124C46.0121 82.8124 45.3125 83.512 45.3125 84.3749V93.7499H40.4195L41.925 91.4917C42.2105 91.0636 42.2668 90.5223 42.0758 90.0446L41.2961 88.0958L43.5102 80.7159L49.357 77.2079L49.4664 77.4264C50.1555 78.8157 51.5742 79.6927 53.125 79.6874C53.9875 79.6884 54.6865 80.3874 54.6875 81.2499V85.1561C54.6875 87.3136 56.4363 89.0624 58.5938 89.0624C60.7512 89.0624 62.5 87.3136 62.5 85.1561V82.0311C62.5 81.5997 62.8498 81.2499 63.2812 81.2499C63.7127 81.2499 64.0625 81.5997 64.0625 82.0311C64.059 84.1848 65.802 85.9339 67.9559 85.9374C68.9139 85.9389 69.8391 85.5878 70.5547 84.9511L72.9543 93.7499H67.1875V89.0624C67.1875 88.1995 66.4879 87.4999 65.625 87.4999ZM53.125 76.5624C52.759 76.5636 52.424 76.3567 52.2611 76.0288L51.7469 74.9999L55.2205 68.0522L68.75 78.8759V82.0311C68.75 82.4626 68.4002 82.8124 67.9688 82.8124C67.5373 82.8124 67.1875 82.4626 67.1875 82.0311C67.1875 79.8737 65.4387 78.1249 63.2812 78.1249C61.1238 78.1249 59.375 79.8737 59.375 82.0311V85.1561C59.375 85.5876 59.0252 85.9374 58.5938 85.9374C58.1623 85.9374 57.8125 85.5876 57.8125 85.1561V81.2499C57.8096 78.6624 55.7125 76.5653 53.125 76.5624ZM25.4576 93.2923L25.9152 93.7499H19.0936L20.1895 88.2702L22.5221 85.9374H25V92.1874C25 92.6018 25.1646 92.9993 25.4576 93.2923ZM35.484 83.919L34.6598 86.3917L32.8125 87.3155L29.1992 85.5093L31.7283 82.9802L35.484 83.919ZM30.3346 93.7499L28.125 91.5403V88.4655L32.1137 90.4598C32.5535 90.6798 33.0715 90.6798 33.5113 90.4598L36.6363 88.8973C37.007 88.712 37.2889 88.3872 37.4199 87.994L37.6336 87.3532L38.8691 90.4419L36.6639 93.7499H30.3346ZM90.625 93.7499V90.427C91.2719 90.2593 91.8873 89.9882 92.4479 89.6245L93.3646 93.7499H90.625Z" fill="#1A94AE"/>
<path d="M77.4262 34.04C78.198 34.4259 79.1365 34.1131 79.5225 33.3414C79.7584 32.8693 80.3326 32.6779 80.8047 32.914C80.8967 32.9599 80.9805 33.0205 81.0531 33.0931L81.7076 33.7474C82.3178 34.3576 83.307 34.3576 83.9174 33.7474L84.5717 33.0931C84.9447 32.7197 85.5498 32.7195 85.9232 33.0925C85.9961 33.1652 86.0566 33.2492 86.1025 33.3414C86.4824 34.1162 87.4185 34.4363 88.1934 34.0564C88.9682 33.6765 89.2883 32.7404 88.9084 31.9656C88.9049 31.9584 88.9012 31.9511 88.8975 31.9437C87.89 29.9283 85.4394 29.1111 83.424 30.1185C83.2096 30.2257 83.0049 30.3517 82.8125 30.4947C81.0049 29.1496 78.4488 29.5246 77.1037 31.3322C76.9605 31.5246 76.8346 31.7293 76.7275 31.9437C76.3416 32.7156 76.6545 33.6541 77.4262 34.04Z" fill="#1A94AE"/>
<path d="M17.2236 31.3031C15.9297 31.515 14.8156 32.3341 14.2275 33.5062C13.8355 34.275 14.141 35.216 14.9098 35.608C15.6785 36 16.6195 35.6945 17.0115 34.9258C17.0152 34.9185 17.0187 34.9113 17.0225 34.9039C17.2586 34.4318 17.8326 34.2404 18.3047 34.4765C18.3967 34.5224 18.4805 34.583 18.5531 34.6556L19.2076 35.3099C19.8178 35.9201 20.807 35.9201 21.4174 35.3099L22.0717 34.6556C22.4447 34.2822 23.0498 34.282 23.4232 34.655C23.4961 34.7277 23.5566 34.8117 23.6025 34.9039C23.9824 35.6787 24.9186 35.9988 25.6934 35.6187C26.4682 35.2388 26.7883 34.3027 26.4082 33.5279C26.4047 33.5207 26.401 33.5134 26.3975 33.5062C25.39 31.4908 22.9395 30.6736 20.924 31.681C20.7096 31.7882 20.5049 31.9142 20.3125 32.0572C19.4266 31.3998 18.3129 31.1279 17.2236 31.3031Z" fill="#1A94AE"/>
<path d="M85.2387 26.2275C86.0105 26.6134 86.949 26.3005 87.335 25.5289C87.5709 25.0568 88.1451 24.8654 88.6172 25.1015C88.7092 25.1474 88.793 25.208 88.8656 25.2806L89.5201 25.9349C90.1303 26.5451 91.1195 26.5451 91.7299 25.9349L92.3842 25.2806C92.7572 24.9072 93.3623 24.907 93.7357 25.28C93.8086 25.3527 93.8691 25.4367 93.915 25.5289C94.2949 26.3037 95.231 26.6238 96.0058 26.2439C96.7806 25.864 97.1008 24.9279 96.7209 24.1531C96.7174 24.1459 96.7137 24.1384 96.7099 24.1312C95.7025 22.1158 93.2519 21.2986 91.2365 22.306C91.0221 22.4132 90.8174 22.5392 90.625 22.6822C88.8174 21.3371 86.2613 21.7121 84.9162 23.5197C84.773 23.7121 84.6471 23.9168 84.54 24.1312C84.1541 24.9031 84.467 25.8416 85.2387 26.2275Z" fill="#1A94AE"/>
<path d="M8.67618 27.79C9.44805 28.1759 10.3865 27.8631 10.7725 27.0914C11.0086 26.6193 11.5826 26.4279 12.0547 26.664C12.1467 26.7099 12.2305 26.7705 12.3031 26.8431L12.9576 27.4974C13.5678 28.1076 14.557 28.1076 15.1674 27.4974L15.8217 26.8431C16.1947 26.4697 16.7998 26.4695 17.1732 26.8425C17.2461 26.9152 17.3066 26.9992 17.3525 27.0914C17.7445 27.8601 18.6856 28.1656 19.4543 27.7736C20.2147 27.3859 20.5232 26.4599 20.1475 25.6937C19.14 23.6783 16.6895 22.8611 14.674 23.8685C14.4596 23.9757 14.2549 24.1017 14.0625 24.2447C12.2549 22.8996 9.69884 23.2746 8.35372 25.0822C8.21055 25.2746 8.08458 25.4793 7.97755 25.6937C7.59161 26.4656 7.9045 27.4041 8.67618 27.79Z" fill="#1A94AE"/>
<path d="M50 10.9375C50.8629 10.9375 51.5625 10.2379 51.5625 9.375V6.25C51.5625 5.38711 50.8629 4.6875 50 4.6875C49.1371 4.6875 48.4375 5.38711 48.4375 6.25V9.375C48.4375 10.2379 49.1371 10.9375 50 10.9375Z" fill="#1A94AE"/>
<path d="M40.4703 12.979C40.9623 13.688 41.9357 13.864 42.6447 13.372C43.3537 12.88 43.5297 11.9066 43.0377 11.1976C43.0248 11.1792 43.0117 11.161 42.998 11.1431L41.1613 8.6132C40.6539 7.91495 39.6764 7.76027 38.9781 8.26769C38.2799 8.77511 38.1252 9.75265 38.6328 10.4509L40.4703 12.979Z" fill="#1A94AE"/>
<path d="M33.1709 19.6122L36.1432 20.5779C36.9635 20.8458 37.8457 20.3982 38.1137 19.5779C38.3816 18.7575 37.934 17.8753 37.1137 17.6073C37.1123 17.607 37.1109 17.6064 37.1094 17.606L34.1363 16.6405C33.3172 16.3689 32.433 16.8126 32.1613 17.6318C31.8896 18.4509 32.3334 19.3351 33.1525 19.6068C33.1586 19.6087 33.1646 19.6107 33.1707 19.6126V19.6122H33.1709Z" fill="#1A94AE"/>
<path d="M33.6533 30.3126C33.8174 30.3124 33.9803 30.2866 34.1363 30.2358L37.1094 29.269C37.9334 29.0128 38.3935 28.137 38.1373 27.3129C37.8811 26.4889 37.0053 26.0288 36.1812 26.285C36.1687 26.2889 36.1564 26.2928 36.1441 26.2971L33.1719 27.2628C32.351 27.529 31.9014 28.41 32.1674 29.2309C32.3764 29.8754 32.9768 30.3118 33.6543 30.3116L33.6533 30.3126Z" fill="#1A94AE"/>
<path d="M62.8906 29.2688L65.8629 30.2346C66.682 30.5063 67.5662 30.0626 67.8379 29.2436C68.1096 28.4245 67.6658 27.5403 66.8469 27.2686C66.8408 27.2667 66.8346 27.2645 66.8283 27.2626L63.8561 26.2969C63.0387 26.02 62.1518 26.4581 61.8748 27.2755C61.5979 28.0928 62.0359 28.9798 62.8533 29.2567C62.8656 29.2608 62.8781 29.2649 62.8906 29.2688Z" fill="#1A94AE"/>
<path d="M63.3738 20.6549C63.5379 20.6549 63.7008 20.629 63.8568 20.578L66.8291 19.6124C67.6453 19.3321 68.0797 18.4434 67.7996 17.6272C67.526 16.8301 66.6695 16.3936 65.8637 16.6407L62.8906 17.6061C62.0697 17.8723 61.6201 18.7534 61.8861 19.5743C62.0951 20.2188 62.6955 20.6551 63.3731 20.6549H63.3738Z" fill="#1A94AE"/>
<path d="M57.3473 13.3247C58.0453 13.8319 59.0225 13.6771 59.5297 12.979L61.3672 10.4509C61.8746 9.75265 61.7199 8.77531 61.0219 8.26769C60.3236 7.76027 59.3463 7.91495 58.8387 8.6132L57.0018 11.1415C56.4941 11.8394 56.6486 12.8167 57.3465 13.3241C57.3467 13.3243 57.3471 13.3245 57.3473 13.3247Z" fill="#1A94AE"/>
</svg>
