<svg width="100" height="100" viewBox="0 0 100 100" fill="none" xmlns="http://www.w3.org/2000/svg">
<g clip-path="url(#clip0)">
<path d="M24.5641 30.0592C11.0446 30.0592 0.0455322 41.0583 0.0455322 54.5778C0.0455322 62.9718 4.03851 71.9968 11.9137 81.4023C13.0838 82.7997 14.2499 84.0947 15.3688 85.2761C10.284 86.664 7.23109 89.1576 7.23109 92.0679C7.23109 97.2201 16.1612 100 24.5634 100C32.9657 100 41.8956 97.2199 41.8956 92.0679C41.8956 89.1599 38.8437 86.6658 33.7622 85.2773C35.7923 83.1341 37.9767 80.6126 40.0493 77.8001C40.5298 77.148 40.3907 76.2302 39.7388 75.7497C39.0872 75.2698 38.1689 75.4085 37.6884 76.0605C35.186 79.4564 32.4774 82.4408 30.114 84.8113C29.8431 84.9496 29.6165 85.1691 29.4745 85.4458C27.3573 87.5265 25.5757 89.0701 24.5647 89.9134C23.5649 89.0783 21.8104 87.5556 19.7204 85.5021C19.5704 85.1734 19.3069 84.9156 18.9854 84.7718C12.3434 78.0911 2.97816 66.5489 2.97816 54.5782C2.97816 42.6758 12.6616 32.9924 24.5639 32.9924C36.4663 32.9924 46.1497 42.6758 46.1497 54.5782C46.1497 59.7761 44.3786 65.3894 40.8857 71.2622C40.4718 71.9585 40.7003 72.8583 41.3964 73.2722C42.0925 73.6861 42.9925 73.4575 43.4064 72.7614C47.1728 66.4286 49.0825 60.311 49.0825 54.5782C49.0827 41.0582 38.0837 30.0592 24.5641 30.0592ZM23.6667 92.9634C23.9307 93.1679 24.2475 93.2701 24.5641 93.2701C24.8807 93.2701 25.1973 93.1679 25.4616 92.9634C25.6415 92.8242 28.0919 90.9132 31.3581 87.7197C36.3038 88.7283 38.9632 90.6703 38.9632 92.0681C38.9632 93.1121 37.5323 94.3437 35.229 95.2822C32.404 96.4336 28.6163 97.0677 24.5636 97.0677C15.7733 97.0677 10.1639 94.1064 10.1639 92.0681C10.1639 90.6683 12.8241 88.7273 17.7725 87.7187C21.0569 90.9312 23.5108 92.8427 23.6667 92.9634Z" fill="#1C1C1C"/>
<path d="M24.5641 43.9169C22.2448 43.9169 20.0393 44.6491 18.1862 46.0345C17.5377 46.5194 17.4049 47.4384 17.8897 48.087C18.3749 48.7354 19.2938 48.8681 19.9422 48.3835C21.2842 47.3802 22.8825 46.8497 24.5639 46.8497C28.8251 46.8497 32.2917 50.3163 32.2917 54.5776C32.2917 58.8388 28.8251 62.3054 24.5639 62.3054C20.3028 62.3054 16.8362 58.8386 16.8362 54.5776C16.8362 53.8505 16.9368 53.1315 17.135 52.4413C17.3584 51.663 16.9086 50.8509 16.1303 50.6272C15.3522 50.4046 14.5399 50.8538 14.3162 51.6321C14.0426 52.5858 13.9037 53.5767 13.9037 54.5776C13.9037 60.4558 18.686 65.2382 24.5643 65.2382C30.4425 65.2382 35.2249 60.456 35.2249 54.5776C35.2247 48.6993 30.4423 43.9169 24.5641 43.9169Z" fill="#1C1C1C"/>
<path d="M88.4685 42.6018C89.2146 41.8013 89.9832 40.9388 90.7539 40.018C96.859 32.7264 99.9545 25.7168 99.9545 19.1834C99.9545 8.60588 91.3488 0 80.771 0C73.0439 0 66.1058 4.59884 63.0958 11.716C62.7802 12.4619 63.1292 13.3225 63.8749 13.6377C64.6206 13.953 65.4814 13.6043 65.7966 12.8586C68.347 6.82892 74.2247 2.93262 80.771 2.93262C89.7318 2.93262 97.0219 10.2229 97.0219 19.1836C97.0219 31.3014 84.2996 42.911 80.7705 45.8976C79.9927 45.2403 78.7685 44.1645 77.3331 42.7575C77.19 42.4737 76.9587 42.2487 76.681 42.1095C71.6179 37.0116 64.5202 28.2485 64.5202 19.1836C64.5202 18.3737 63.864 17.7172 63.0538 17.7172C62.244 17.7172 61.5874 18.3737 61.5874 19.1836C61.5874 25.7168 64.6829 32.7264 70.7882 40.0182C71.5587 40.9384 72.3267 41.8005 73.0724 42.6009C69.2923 43.7366 67.1101 45.6698 67.1101 47.9978C67.1101 49.961 68.7027 51.6913 71.5948 52.8696C74.0695 53.878 77.3283 54.4335 80.7708 54.4335C84.2132 54.4335 87.472 53.878 89.9468 52.8696C92.8384 51.6911 94.431 49.9608 94.431 47.9976C94.4308 45.6739 92.247 43.739 88.4685 42.6018ZM80.7706 51.5005C73.8294 51.5005 70.0429 49.1864 70.0429 47.9974C70.0429 47.2228 71.7654 45.8052 75.4435 45.0231C77.9183 47.4311 79.7552 48.862 79.8738 48.954C80.138 49.1585 80.4546 49.2606 80.7712 49.2606C81.0878 49.2606 81.4042 49.1585 81.6687 48.954C81.7873 48.8624 83.6238 47.4313 86.0986 45.0235C87.7373 45.3729 89.1568 45.8849 90.1502 46.4895C90.9945 47.004 91.4986 47.5677 91.4986 47.9974C91.4982 49.1864 87.7117 51.5005 80.7706 51.5005Z" fill="#1C1C1C"/>
<path d="M80.771 10.6506C76.0662 10.6506 72.2382 14.4784 72.2382 19.1837C72.2382 23.8886 76.066 27.7163 80.771 27.7163C85.4761 27.7163 89.3039 23.8887 89.3039 19.1837C89.3039 14.4786 85.4761 10.6506 80.771 10.6506ZM80.7712 24.7835C77.683 24.7835 75.171 22.2714 75.171 19.1835C75.171 16.0956 77.6832 13.5833 80.7712 13.5833C83.8591 13.5833 86.3714 16.0954 86.3714 19.1835C86.3713 22.2714 83.8591 24.7835 80.7712 24.7835Z" fill="#1C1C1C"/>
<path d="M61.7496 46.5312H61.08C60.5925 46.5312 60.1027 46.5635 59.6234 46.6273C58.8208 46.7342 58.2566 47.4713 58.3632 48.2744C58.4615 49.0117 59.0912 49.5477 59.815 49.5477C59.8794 49.5477 59.9447 49.5436 60.0103 49.5348C60.3617 49.4881 60.7216 49.4645 61.0802 49.4645H61.7496V49.4643C62.5595 49.4643 63.216 48.808 63.216 47.9979C63.216 47.1877 62.5595 46.5312 61.7496 46.5312Z" fill="#1C1C1C"/>
<path d="M56.9017 90.5266C56.8993 90.5266 56.8972 90.5266 56.8948 90.5266L54.9581 90.5354C54.1484 90.5391 53.4949 91.1987 53.4984 92.0084C53.5019 92.8161 54.1579 93.4682 54.9646 93.4682C54.9669 93.4682 54.9691 93.4682 54.9714 93.4682L56.9081 93.4594C57.7179 93.4557 58.3714 92.7961 58.3679 91.9864C58.3644 91.1786 57.7085 90.5266 56.9017 90.5266Z" fill="#1C1C1C"/>
<path d="M63.4896 65.5251H61.5529C60.7429 65.5251 60.0865 66.1818 60.0865 66.9916C60.0865 67.8015 60.7427 68.458 61.5529 68.458H63.4896C64.2996 68.458 64.956 67.8017 64.956 66.9916C64.956 66.1818 64.2998 65.5251 63.4896 65.5251Z" fill="#1C1C1C"/>
<path d="M55.7196 49.519C55.1706 48.9241 54.2432 48.8866 53.6475 49.4354C53.1009 49.9395 52.6036 50.5015 52.1696 51.1058C51.6971 51.7638 51.8475 52.68 52.5054 53.1524C52.7641 53.3384 53.0634 53.4278 53.3596 53.4278C53.8157 53.4278 54.2653 53.2155 54.5518 52.8167C54.8702 52.3735 55.235 51.961 55.636 51.5911C56.2313 51.0421 56.2686 50.1143 55.7196 49.519Z" fill="#1C1C1C"/>
<path d="M64.6489 90.4912C64.6466 90.4912 64.6444 90.4912 64.6421 90.4912L62.7056 90.5C61.8958 90.5035 61.2423 91.1633 61.2458 91.973C61.2493 92.7807 61.9054 93.4328 62.712 93.4328C62.7144 93.4328 62.7165 93.4328 62.7188 93.4328L64.6554 93.424C65.4651 93.4205 66.1187 92.7607 66.1151 91.951C66.1114 91.1434 65.4556 90.4912 64.6489 90.4912Z" fill="#1C1C1C"/>
<path d="M49.1546 90.5618C49.1523 90.5618 49.1501 90.5618 49.1478 90.5618L47.2111 90.5706C46.4013 90.5743 45.7478 91.2338 45.7513 92.0436C45.755 92.8512 46.4105 93.5034 47.2175 93.5034C47.2199 93.5034 47.222 93.5034 47.2243 93.5034L49.1611 93.4946C49.9708 93.4909 50.6244 92.8313 50.6209 92.0215C50.6173 91.2137 49.9615 90.5618 49.1546 90.5618Z" fill="#1C1C1C"/>
<path d="M56.8026 64.2926C56.3419 64.002 55.9085 63.6625 55.5149 63.2842C54.9312 62.7227 54.0026 62.7412 53.4415 63.3244C52.88 63.908 52.8981 64.8363 53.4817 65.3977C54.0185 65.9139 54.6093 66.3766 55.2378 66.7731C55.4808 66.9264 55.7513 66.9994 56.0189 66.9994C56.5056 66.9994 56.9815 66.7574 57.2607 66.315C57.6929 65.6303 57.4876 64.7246 56.8026 64.2926Z" fill="#1C1C1C"/>
<path d="M53.198 59.0406C53.0995 58.5351 53.0495 58.0152 53.0495 57.4949L53.0499 57.4135C53.0595 56.6037 52.4107 55.9396 51.6007 55.9303C51.595 55.9301 51.5892 55.9301 51.5833 55.9301C50.7814 55.9301 50.1267 56.5754 50.1173 57.3795L50.1167 57.4951C50.1167 58.2033 50.1849 58.9121 50.3192 59.6017C50.4556 60.3019 51.0692 60.7877 51.7569 60.7877C51.8497 60.7877 51.9442 60.7789 52.0388 60.7603C52.8339 60.6055 53.3526 59.8355 53.198 59.0406Z" fill="#1C1C1C"/>
<path d="M71.2371 65.5251H69.3003C68.4904 65.5251 67.8339 66.1818 67.8339 66.9916C67.8339 67.8015 68.4904 68.458 69.3003 68.458H71.2371C72.047 68.458 72.7035 67.8017 72.7035 66.9916C72.7035 66.1818 72.047 65.5251 71.2371 65.5251Z" fill="#1C1C1C"/>
<path d="M94.7802 68.5108C94.2152 68.0649 93.6113 67.6598 92.9849 67.3073C92.28 66.9096 91.3853 67.1594 90.9876 67.8651C90.5902 68.5706 90.8398 69.4651 91.5455 69.8624C92.0396 70.1411 92.5165 70.4606 92.9624 70.8128C93.232 71.0255 93.5519 71.1284 93.8703 71.1284C94.3035 71.1284 94.7328 70.937 95.0222 70.5706C95.5242 69.9348 95.416 69.0126 94.7802 68.5108Z" fill="#1C1C1C"/>
<path d="M89.337 91.542C89.2257 90.7398 88.4843 90.1783 87.6837 90.29C87.2034 90.3564 86.7117 90.3914 86.2212 90.3934L85.9468 90.3947C85.1369 90.3988 84.4835 91.0586 84.4874 91.8682C84.4915 92.6756 85.1472 93.3275 85.9536 93.3275C85.9562 93.3275 85.9585 93.3275 85.9609 93.3275L86.2347 93.3262C86.854 93.3234 87.4767 93.2795 88.0851 93.1953C88.8876 93.0844 89.448 92.344 89.337 91.542Z" fill="#1C1C1C"/>
<path d="M95.8088 87.4183C95.25 86.8316 94.3217 86.8092 93.7357 87.3679C93.3242 87.7599 92.8789 88.1228 92.4119 88.4467C91.7465 88.908 91.581 89.8217 92.0422 90.4875C92.3271 90.8982 92.784 91.1185 93.2486 91.1185C93.5369 91.1185 93.8279 91.0338 94.0828 90.8572C94.6738 90.4472 95.2377 89.9879 95.7586 89.4916C96.3451 88.9328 96.3674 88.0045 95.8088 87.4183Z" fill="#1C1C1C"/>
<path d="M98.6627 80.2968C97.868 80.147 97.1004 80.6705 96.9504 81.4664C96.8451 82.0244 96.6955 82.5781 96.5051 83.1124C96.2332 83.8751 96.631 84.714 97.3939 84.9861C97.5566 85.0441 97.723 85.0716 97.8865 85.0716C98.4889 85.0716 99.0537 84.6974 99.2678 84.0974C99.5094 83.4197 99.6994 82.7171 99.8328 82.0091C99.9822 81.2132 99.4584 80.4464 98.6627 80.2968Z" fill="#1C1C1C"/>
<path d="M99.5338 75.5829C99.335 74.8905 99.0799 74.2085 98.7748 73.5548C98.4322 72.8208 97.5603 72.5036 96.8258 72.8458C96.092 73.1883 95.7746 74.0608 96.117 74.7948C96.3572 75.3095 96.5584 75.847 96.7148 76.3919C96.8994 77.035 97.4861 77.4542 98.1236 77.4542C98.2578 77.4542 98.3937 77.4356 98.5289 77.397C99.3072 77.1733 99.757 76.3612 99.5338 75.5829Z" fill="#1C1C1C"/>
<path d="M78.9844 65.5251H77.0476C76.2377 65.5251 75.5812 66.1818 75.5812 66.9916C75.5812 67.8015 76.2375 68.458 77.0476 68.458H78.9844C79.7943 68.458 80.4508 67.8017 80.4508 66.9916C80.4508 66.1818 79.7943 65.5251 78.9844 65.5251Z" fill="#1C1C1C"/>
<path d="M72.3963 90.4561C72.3939 90.4561 72.3918 90.4561 72.3894 90.4561L70.4527 90.4648C69.6429 90.4684 68.9894 91.1281 68.9929 91.9379C68.9966 92.7455 69.6525 93.3977 70.4591 93.3977C70.4615 93.3977 70.4636 93.3977 70.466 93.3977L72.4027 93.3889C73.2125 93.3852 73.866 92.7256 73.8625 91.9158C73.8589 91.1082 73.2029 90.4561 72.3963 90.4561Z" fill="#1C1C1C"/>
<path d="M86.7961 65.5393C86.5887 65.5299 86.3785 65.5254 86.1719 65.5254H84.7947C83.9848 65.5254 83.3283 66.182 83.3283 66.9918C83.3283 67.8018 83.9846 68.4582 84.7947 68.4582H86.1719V68.458C86.3377 68.458 86.5025 68.4617 86.6664 68.469C86.6885 68.4701 86.7105 68.4705 86.7324 68.4705C87.5123 68.4705 88.1615 67.8561 88.1961 67.0691C88.2318 66.2598 87.6051 65.575 86.7961 65.5393Z" fill="#1C1C1C"/>
<path d="M80.1433 90.4209C80.141 90.4209 80.1388 90.4209 80.1365 90.4209L78.1998 90.4297C77.39 90.4332 76.7365 91.093 76.74 91.9027C76.7437 92.7104 77.3996 93.3625 78.2062 93.3625C78.2086 93.3625 78.2109 93.3625 78.2131 93.3625L80.1498 93.3537C80.9595 93.35 81.6131 92.6904 81.6095 91.8807C81.606 91.0729 80.9502 90.4209 80.1433 90.4209Z" fill="#1C1C1C"/>
</g>
<defs>
<clipPath id="clip0">
<rect width="100" height="100" fill="white"/>
</clipPath>
</defs>
</svg>
