<svg width="96" height="33" viewBox="0 0 96 33" fill="none" xmlns="http://www.w3.org/2000/svg">
<path d="M57.6602 2.34082L52.9209 16.7607L47.665 33H32.1221L32.8857 31.4053L37.2656 22.4209L46.1826 3.77832H40.8369C36.1351 3.80827 33.1029 4.06283 31.7402 4.54199C31.3359 4.69173 31.0065 4.7666 30.752 4.7666C30.3027 4.7666 30.0781 4.33984 30.0781 3.48633C30.0781 2.67773 30.4001 2.27344 31.0439 2.27344L34.4131 2.36328H36.6367L47.0137 2.34082H57.6602Z" fill="#1A94AE"/>
<path d="M2.29688 9.12604H11.4844C12.9427 9.12604 14.1458 9.6 15.0938 10.5479C16.0417 11.4958 16.5156 12.8083 16.5156 14.4854C16.5156 16.1625 16.0417 17.475 15.0938 18.4229C14.5833 18.9333 13.8542 19.2615 12.9062 19.4073L17.1719 27.8292H14.4375L10.5 19.7354H4.8125V27.8292H2.29688V9.12604ZM4.8125 11.2042V17.6573H11.2656C11.9948 17.6573 12.6146 17.4021 13.125 16.8917C13.6354 16.3812 13.8906 15.5792 13.8906 14.4854C13.8906 13.4646 13.599 12.6625 13.0156 12.0792C12.4323 11.4958 11.7396 11.2042 10.9375 11.2042H4.8125ZM19.1406 18.5323C19.1406 15.4698 20.0156 13.0635 21.7656 11.3135C23.2969 9.78229 25.1562 9.01666 27.3438 9.01666C29.5312 9.01666 31.3906 9.78229 32.9219 11.3135C34.6719 13.0635 35.5469 15.4698 35.5469 18.5323C35.5469 21.5948 34.6719 24.001 32.9219 25.751C31.3906 27.2823 29.5312 28.0479 27.3438 28.0479C25.1562 28.0479 23.2969 27.2823 21.7656 25.751C20.0156 24.001 19.1406 21.5948 19.1406 18.5323ZM27.3438 11.0948C25.9583 11.0948 24.7188 11.6417 23.625 12.7354C22.3854 13.975 21.7656 15.9073 21.7656 18.5323C21.7656 21.1573 22.3854 23.0896 23.625 24.3292C24.7188 25.4229 25.9583 25.9698 27.3438 25.9698C28.7292 25.9698 29.9688 25.4229 31.0625 24.3292C32.3021 23.0896 32.9219 21.1573 32.9219 18.5323C32.9219 15.9073 32.3021 13.975 31.0625 12.7354C29.9688 11.6417 28.7292 11.0948 27.3438 11.0948ZM39.2656 9.23541H41.7812V22.3604C41.7812 23.3812 42.1094 24.2198 42.7656 24.876C43.5677 25.6781 44.7344 26.0792 46.2656 26.0792C47.7969 26.0792 48.9635 25.6781 49.7656 24.876C50.4219 24.2198 50.75 23.3812 50.75 22.3604V9.23541H53.2656V22.4698C53.2656 24.074 52.7552 25.3865 51.7344 26.4073C50.5677 27.574 48.7448 28.1573 46.2656 28.1573C43.7865 28.1573 41.9635 27.574 40.7969 26.4073C39.776 25.3865 39.2656 24.074 39.2656 22.4698V9.23541ZM56 9.23541H70.9844V11.3135H64.75V27.9385H62.2344V11.3135H56V9.23541ZM73.6094 9.23541H85.6406V11.3135H76.125V17.1104H84.9844V19.1885H76.125V25.8604H86.1875V27.9385H73.6094V9.23541Z" fill="white"/>
</svg>
