<svg width="78" height="75" viewBox="0 0 78 75" fill="none" xmlns="http://www.w3.org/2000/svg">
<path d="M38.7173 40.4121C38.7981 40.4121 38.8789 40.4121 38.9758 40.4121C39.0081 40.4121 39.0404 40.4121 39.0727 40.4121C39.1211 40.4121 39.1858 40.4121 39.2342 40.4121C43.9669 40.3344 47.795 38.7347 50.6217 35.6751C56.8403 28.9346 55.8066 17.3794 55.6935 16.2767C55.2897 7.99855 51.2193 4.0381 47.8596 2.18989C45.356 0.807621 42.4324 0.0621247 39.1696 0H39.0565C39.0404 0 39.0081 0 38.9919 0H38.895C37.1021 0 33.5809 0.279561 30.205 2.12777C26.813 3.97598 22.678 7.93643 22.2742 16.2767C22.1611 17.3794 21.1274 28.9346 27.346 35.6751C30.1566 38.7347 33.9847 40.3344 38.7173 40.4121ZM26.5869 16.6649C26.5869 16.6183 26.603 16.5718 26.603 16.5407C27.1361 5.40485 35.3576 4.20895 38.8789 4.20895H38.9435C38.9758 4.20895 39.0242 4.20895 39.0727 4.20895C43.4338 4.30213 50.8478 6.01056 51.3485 16.5407C51.3485 16.5873 51.3485 16.6339 51.3647 16.6649C51.3808 16.7737 52.5115 27.3349 47.375 32.895C45.3398 35.1004 42.6262 36.1876 39.0565 36.2187C39.0242 36.2187 39.0081 36.2187 38.9758 36.2187C38.9435 36.2187 38.9273 36.2187 38.895 36.2187C35.3415 36.1876 32.6117 35.1004 30.5927 32.895C25.4724 27.3659 26.5707 16.7581 26.5869 16.6649Z" fill="black"/>
<path d="M72.169 59.5776C72.169 59.5621 72.169 59.5465 72.169 59.531C72.169 59.4067 72.1528 59.2825 72.1528 59.1427C72.0559 56.0675 71.8459 48.8766 64.8358 46.578C64.7873 46.5625 64.7227 46.5469 64.6743 46.5314C57.3895 44.7453 51.3324 40.7072 51.2678 40.6606C50.2825 39.9928 48.9257 40.2258 48.2311 41.1732C47.5366 42.1206 47.7788 43.4252 48.7641 44.093C49.0387 44.2794 55.4674 48.5815 63.5113 50.5695C67.2748 51.8586 67.6948 55.7259 67.8078 59.267C67.8078 59.4068 67.8078 59.531 67.824 59.6553C67.8401 61.0531 67.7432 63.2119 67.4848 64.4544C64.8681 65.8832 54.6113 70.8222 39.0081 70.8222C23.4695 70.8222 13.1481 65.8677 10.5152 64.4389C10.2568 63.1964 10.1437 61.0375 10.176 59.6397C10.176 59.5155 10.1922 59.3912 10.1922 59.2514C10.3052 55.7103 10.7252 51.8431 14.4887 50.554C22.5326 48.566 28.9613 44.2483 29.2359 44.0775C30.2212 43.4096 30.4635 42.105 29.7689 41.1576C29.0743 40.2102 27.7175 39.9773 26.7322 40.6451C26.6676 40.6917 20.6428 44.7298 13.3257 46.5159C13.2611 46.5314 13.2127 46.5469 13.1642 46.5625C6.15407 48.8766 5.94409 56.0676 5.84718 59.1272C5.84718 59.267 5.84718 59.3912 5.83103 59.5155C5.83103 59.531 5.83103 59.5465 5.83103 59.5621C5.81487 60.3697 5.79872 64.5165 6.6548 66.5977C6.81632 67.0015 7.10707 67.3432 7.49472 67.5761C7.9793 67.8868 19.5929 75 39.0242 75C58.4556 75 70.0692 67.8712 70.5537 67.5761C70.9252 67.3432 71.2321 67.0015 71.3937 66.5977C72.2013 64.532 72.1851 60.3852 72.169 59.5776Z" fill="black"/>
</svg>
