<?xml version="1.0" encoding="utf-8"?><svg viewBox="0 0 100 100" xmlns="http://www.w3.org/2000/svg" xmlns:xlink="http://www.w3.org/1999/xlink"><style>:root>svg{display:none}:root>svg:target{display:block}</style><svg fill="none" viewBox="0 0 12 8" id="accordion__btn" xmlns="http://www.w3.org/2000/svg"><path d="M1.41.59L6 5.17 10.59.59 12 2 6 8 0 2 1.41.59z" fill="#fff"/></svg><svg fill="none" viewBox="0 0 100 100" id="benefits__item-1" xmlns="http://www.w3.org/2000/svg"><path d="M96.838 94.974l-1.89-8.5a6.22 6.22 0 00.365-2.1V81.25a6.238 6.238 0 00-7.015-6.202l-2.405-9.796a1.563 1.563 0 00-.76-.993l-13.43-7.46-4.546-22.73a1.562 1.562 0 00-.833-1.092L60.3 29.966l-2.059-2.06a9.375 9.375 0 10-16.592-.203l-11.218 6.904a1.56 1.56 0 00-.697.952l-6.104 24.413-6.444 4.296V60.78a7.81 7.81 0 004.688-12.34v-1.566a6.25 6.25 0 10-12.5 0v1.565a7.811 7.811 0 004.688 12.341v5.571l-3.992 2.66c-.35.234-.592.599-.67 1.012L4.954 93.75h-.07a1.563 1.563 0 000 3.125h90.43a1.562 1.562 0 001.525-1.901zm-85.9-41.85a4.68 4.68 0 011.171-3.097c.252-.285.391-.653.391-1.034v-2.118a3.125 3.125 0 116.25 0v2.118c0 .38.139.748.39 1.034a4.688 4.688 0 11-8.203 3.098zm81.25 28.126v3.125a3.125 3.125 0 11-6.25 0V81.25a3.125 3.125 0 116.25 0zM58.675 32.647l5.567 2.784 2.49 12.454-3.157-.79-2.804-5.606a1.562 1.562 0 00-1.09-.834l-7.179-1.435-2.766-4.15a1.561 1.561 0 00-.6-.53l-2.483-1.241-1.085-4.339 5.762-3.545 6.94 6.94c.118.119.255.217.405.292zM50 17.187a6.245 6.245 0 015.881 8.36l-3.214-3.214a1.563 1.563 0 00-1.923-.226l-6.417 3.949A6.246 6.246 0 0150 17.187zm21.288 59.719l-15.624-12.5a1.563 1.563 0 00-2.374.52l-4.484 8.969-7.422 4.453c-.334.2-.58.518-.693.89l-1.259 4.198-.48-1.203a1.4 1.4 0 00-1.074-.936l-6.25-1.562a1.563 1.563 0 00-1.484.41l-2.697 2.697a1.561 1.561 0 00-.299-.03h-5.273c-.415 0-.812.165-1.105.458l-3.125 3.125a1.564 1.564 0 00-.427.798l-1.312 6.557H8.133l4.219-22.503 4.145-2.763.003-.002 6.004-4.004-1.998 7.995-4.185 2.79a1.562 1.562 0 00-.65.92l-1.562 6.25a1.562 1.562 0 103.026.78l.006-.022 1.416-5.664 4.185-2.79c.323-.215.555-.544.649-.92l9.22-36.884 3.327-2.045v22.924a1.563 1.563 0 003.124 0V42.187l3.126 2.344v7.031c0 .523.26 1.01.695 1.3l3.992 2.661v5.414a1.563 1.563 0 003.125 0v-6.25c0-.522-.261-1.01-.696-1.3l-3.992-2.66V43.75c0-.492-.231-.955-.624-1.25l-5.626-4.219v-5.316l3.716-2.287 1.019 4.076c.11.442.409.814.817 1.018l2.754 1.377 2.895 4.343c.23.344.587.584.993.665l7.063 1.413 2.783 5.566c.204.408.577.706 1.02.817l5.271 1.318 2.945 16.196c.076.417.318.785.67 1.02l4.125 2.75 1.45 8.707a1.563 1.563 0 003.083-.513l-1.562-9.376a1.564 1.564 0 00-.675-1.043l-4.135-2.757-1.011-5.561L83.02 66.66l2.347 9.554a6.245 6.245 0 00-2.555 5.036v3.125a6.261 6.261 0 004.688 6.052v3.323H76.193L71.82 77.715a1.402 1.402 0 00-.531-.81zM65.626 87.5c-.863 0-1.563.7-1.563 1.562v4.688h-3.124v-1.563a1.563 1.563 0 00-3.126 0v1.563h-3.124v-3.125a1.563 1.563 0 00-3.126 0v3.125h-3.124v-9.375a1.563 1.563 0 00-3.126 0v9.375H40.42l1.505-2.258c.286-.428.342-.97.15-1.447l-.779-1.95 2.214-7.38 5.847-3.507.11.218a4.069 4.069 0 003.658 2.261c.862.001 1.562.7 1.563 1.563v3.906a3.906 3.906 0 107.812 0v-3.125a.781.781 0 011.563 0 3.9 3.9 0 006.492 2.92l2.4 8.799h-5.767v-4.688c0-.862-.7-1.562-1.563-1.562zm-12.5-10.938a.961.961 0 01-.864-.533l-.514-1.03 3.474-6.947L68.75 78.876v3.155a.781.781 0 11-1.563 0 3.906 3.906 0 10-7.812 0v3.125a.781.781 0 11-1.563 0V81.25a4.693 4.693 0 00-4.687-4.688zm-27.667 16.73l.457.458h-6.821l1.095-5.48 2.333-2.333H25v6.25c0 .415.165.812.458 1.105zm10.026-9.373l-.824 2.473-1.847.924-3.614-1.807 2.53-2.529 3.755.939zm-5.15 9.83l-2.209-2.209v-3.075l3.989 1.995c.44.22.958.22 1.397 0l3.125-1.563c.371-.185.653-.51.784-.903l.214-.64 1.235 3.088-2.205 3.308h-6.33zm60.291 0v-3.322a6.215 6.215 0 001.823-.803l.917 4.126h-2.74zM77.426 34.04c.772.386 1.71.073 2.096-.699a.956.956 0 011.531-.248l.655.654c.61.61 1.599.61 2.21 0l.654-.654a.956.956 0 011.53.248 1.563 1.563 0 002.806-1.375l-.01-.022a4.08 4.08 0 00-6.085-1.45 4.08 4.08 0 00-6.085 1.45 1.563 1.563 0 00.698 2.096z" fill="#1C1C1C"/><path d="M17.224 31.303a4.092 4.092 0 00-2.997 2.203 1.563 1.563 0 002.785 1.42l.01-.022a.956.956 0 011.531-.248l.655.654c.61.61 1.599.61 2.21 0l.654-.654a.956.956 0 011.53.248 1.562 1.562 0 102.806-1.376l-.01-.022a4.08 4.08 0 00-6.085-1.449c-.886-.657-2-.93-3.09-.754zM85.239 26.227c.771.386 1.71.073 2.096-.698a.956.956 0 011.53-.248l.655.654c.61.61 1.6.61 2.21 0l.654-.654a.956.956 0 011.531.248 1.562 1.562 0 102.795-1.398 4.08 4.08 0 00-6.085-1.449 4.08 4.08 0 00-6.085 1.45 1.563 1.563 0 00.699 2.095zM8.676 27.79c.772.386 1.71.073 2.097-.699a.956.956 0 011.53-.248l.655.654c.61.61 1.599.61 2.21 0l.654-.654a.956.956 0 011.53.248 1.563 1.563 0 002.796-1.397 4.08 4.08 0 00-6.085-1.45 4.08 4.08 0 00-6.085 1.45 1.563 1.563 0 00.698 2.096zM50 10.938c.863 0 1.563-.7 1.563-1.563V6.25a1.563 1.563 0 00-3.126 0v3.125c0 .863.7 1.563 1.563 1.563zM40.47 12.979a1.562 1.562 0 102.528-1.836l-1.837-2.53a1.563 1.563 0 10-2.528 1.838l1.837 2.528zM33.17 19.612l2.973.966a1.563 1.563 0 00.97-2.97l-.004-.002-2.973-.966a1.563 1.563 0 00-.983 2.967l.018.006zM33.653 30.313c.164 0 .327-.026.483-.077l2.973-.967a1.562 1.562 0 10-.965-2.972l-2.972.966a1.563 1.563 0 00.482 3.049zM62.89 29.269l2.973.966a1.562 1.562 0 00.984-2.966l-.019-.006-2.972-.966a1.563 1.563 0 10-.965 2.972zM63.374 20.655c.164 0 .327-.026.483-.077l2.972-.966a1.563 1.563 0 00-.965-2.971l-2.973.965a1.563 1.563 0 00.482 3.049zM57.347 13.325a1.562 1.562 0 002.183-.346l1.837-2.528a1.563 1.563 0 00-2.528-1.838l-1.837 2.529a1.562 1.562 0 00.344 2.182h.001z" fill="#1C1C1C"/></svg><svg fill="none" viewBox="0 0 100 100" id="benefits__item-2" xmlns="http://www.w3.org/2000/svg"><path d="M81.151 43.189h-5.448a2.835 2.835 0 00-2.68-1.923H70.03c-1.243 0-2.3.806-2.68 1.923h-.724a18.583 18.583 0 001.935-6.09h2.41A4.033 4.033 0 0075 33.071v-4.679a4.01 4.01 0 00-.157-1.098h.416c2.519 0 4.568-2.05 4.568-4.57v-.186c0-2.519-2.05-4.569-4.568-4.569h-3.274L66.947 7.296C64.822 2.796 60.587 0 55.897 0H44.764c-4.691 0-8.925 2.796-11.05 7.296L28.676 17.97h-3.935a4.574 4.574 0 00-4.568 4.568v.187c0 2.519 2.05 4.569 4.568 4.569h.416c-.1.35-.156.717-.156 1.098v4.679a4.033 4.033 0 004.028 4.028h2.424a18.58 18.58 0 001.935 6.09h-.747a2.835 2.835 0 00-2.679-1.923h-2.995c-1.243 0-2.299.806-2.68 1.923H18.85a6.355 6.355 0 00-6.348 6.347v9.833a6.354 6.354 0 005.95 6.334 16.75 16.75 0 00-1.092 5.94v22.926a1.475 1.475 0 00-.01.162l.001 3.804c0 .809.656 1.465 1.465 1.465h62.36c.81 0 1.465-.656 1.465-1.465v-.02-18.742a1.465 1.465 0 10-2.93 0v11.84l-7.401-6.137a5.997 5.997 0 01-2.176-4.628v-22.47c5.638 1.866 9.578 7.2 9.578 13.264v1.73a1.465 1.465 0 102.93 0v-1.73c0-2.076-.385-4.08-1.087-5.94a6.355 6.355 0 005.944-6.333v-9.833c0-3.5-2.847-6.347-6.347-6.347zm-13.954 2.93v4.635h-3.02a2.835 2.835 0 00-2.833 2.832v1.183h-3.072v-3.402a18.845 18.845 0 006.463-5.249h2.462zm-37.34 12.263v22.466a5.996 5.996 0 01-2.175 4.628l-7.393 6.13V71.642c0-6.043 3.942-11.389 9.568-13.26zm-9.569 38.66v-1.63l9.264-7.68a8.917 8.917 0 003.235-6.884l.007-27.164h2.922v27.164c0 3.545-1.565 6.876-4.294 9.14l-8.51 7.054h-2.623zm13.004-4.799a14.76 14.76 0 005.354-11.395v-23.15h3.195a8.29 8.29 0 006.694 6.783v12.358a1.465 1.465 0 102.93 0V64.481a8.29 8.29 0 006.694-6.783h3.186v23.15a14.76 14.76 0 005.354 11.395l5.79 4.8H27.502l5.79-4.8zm16.715-38.95a18.66 18.66 0 005.335-.776v3.824A5.349 5.349 0 0150 61.684a5.349 5.349 0 01-5.343-5.343v-3.828a18.66 18.66 0 005.35.78zm22.062-24.9v4.678a1.1 1.1 0 01-1.099 1.098h-2.239v-6.875h2.24a1.1 1.1 0 011.098 1.098zM36.364 8.546C38 5.082 41.22 2.93 44.765 2.93h11.131c3.546 0 6.765 2.152 8.401 5.617l4.448 9.423H31.916l4.448-9.423zM23.102 22.725v-.187c0-.903.736-1.639 1.64-1.639h50.516c.904 0 1.64.736 1.64 1.64v.186c0 .904-.736 1.64-1.64 1.64h-22.07a1.465 1.465 0 100 2.929h12.614v7.274c0 8.71-7.086 15.795-15.795 15.795-8.71 0-15.795-7.085-15.795-15.795v-7.274h12.596a1.465 1.465 0 100-2.93H24.74a1.641 1.641 0 01-1.639-1.639zm4.828 10.346v-4.679a1.1 1.1 0 011.1-1.098h2.252v6.875h-2.253a1.1 1.1 0 01-1.099-1.098zM41.728 51.36v3.409h-3.082v-1.183a2.835 2.835 0 00-2.832-2.832h-3.02v-4.636h2.484a18.85 18.85 0 006.45 5.242zm-11.864-7.164v9.255c-.002.045-.007.09-.007.135v1.738c-.97.261-1.903.607-2.792 1.028V44.196h2.8zM18.85 62.786a3.422 3.422 0 01-3.418-3.417v-9.833a3.422 3.422 0 013.418-3.418h5.286v12.005a17.1 17.1 0 00-4.25 4.664H18.85zm51.59 24.945l9.272 7.688v1.623h-2.632l-8.51-7.054a11.838 11.838 0 01-4.295-9.14V53.684h2.923l.007 27.164a8.917 8.917 0 003.235 6.883zm-.312-34.28v-9.255h2.799v12.15a16.726 16.726 0 00-2.793-1.024v-1.736c0-.045-.004-.09-.006-.135zm14.442 5.918a3.422 3.422 0 01-3.418 3.418h-1.03a17.04 17.04 0 00-4.265-4.676V46.118h5.295a3.422 3.422 0 013.418 3.418v9.833z" fill="#1C1C1C"/></svg><svg fill="none" viewBox="0 0 100 100" id="benefits__item-3" xmlns="http://www.w3.org/2000/svg"><g clip-path="url(#dclip0)" fill="#1C1C1C"><path d="M24.564 30.06C11.044 30.06.046 41.057.046 54.577c0 8.394 3.993 17.419 11.868 26.824a85.03 85.03 0 003.455 3.874c-5.085 1.388-8.138 3.882-8.138 6.792 0 5.152 8.93 7.932 17.332 7.932 8.403 0 17.333-2.78 17.333-7.932 0-2.908-3.052-5.402-8.134-6.79 2.03-2.144 4.215-4.665 6.287-7.478a1.466 1.466 0 10-2.36-1.74c-2.503 3.396-5.212 6.38-7.575 8.751-.27.139-.498.358-.64.635a83.075 83.075 0 01-4.91 4.467c-1-.835-2.754-2.357-4.844-4.41a1.467 1.467 0 00-.735-.731c-6.642-6.68-16.007-18.223-16.007-30.194 0-11.902 9.684-21.586 21.586-21.586S46.15 42.676 46.15 54.578c0 5.198-1.771 10.811-5.264 16.684a1.466 1.466 0 102.52 1.5c3.767-6.333 5.677-12.451 5.677-18.184 0-13.52-11-24.519-24.519-24.519zm-.897 62.903a1.463 1.463 0 001.795 0c.18-.139 2.63-2.05 5.896-5.243 4.946 1.008 7.605 2.95 7.605 4.348 0 1.044-1.43 2.276-3.734 3.214-2.825 1.152-6.613 1.786-10.665 1.786-8.79 0-14.4-2.962-14.4-5 0-1.4 2.66-3.34 7.609-4.35 3.284 3.213 5.738 5.125 5.894 5.245z"/><path d="M24.564 43.917c-2.32 0-4.525.732-6.378 2.117a1.467 1.467 0 001.756 2.35 7.661 7.661 0 014.622-1.534c4.261 0 7.728 3.466 7.728 7.728 0 4.26-3.467 7.727-7.728 7.727-4.261 0-7.728-3.466-7.728-7.727 0-.728.1-1.447.299-2.137a1.467 1.467 0 00-2.819-.809 10.678 10.678 0 00-.412 2.946c0 5.878 4.782 10.66 10.66 10.66s10.66-4.782 10.66-10.66c0-5.879-4.782-10.661-10.66-10.661zM88.469 42.602c.746-.8 1.514-1.663 2.285-2.584 6.105-7.292 9.2-14.301 9.2-20.835C99.954 8.606 91.35 0 80.772 0a19.156 19.156 0 00-17.675 11.716 1.466 1.466 0 102.7 1.143 16.23 16.23 0 0114.975-9.926c8.96 0 16.25 7.29 16.25 16.25 0 12.118-12.721 23.728-16.25 26.715a64.037 64.037 0 01-3.438-3.14 1.464 1.464 0 00-.652-.649c-5.063-5.097-12.16-13.86-12.16-22.925a1.466 1.466 0 10-2.934 0c0 6.533 3.096 13.542 9.201 20.834.77.92 1.539 1.782 2.284 2.583-3.78 1.136-5.962 3.069-5.962 5.397 0 1.963 1.593 3.693 4.485 4.872 2.475 1.008 5.733 1.564 9.176 1.564 3.442 0 6.701-.556 9.176-1.564 2.891-1.179 4.484-2.91 4.484-4.872 0-2.324-2.184-4.259-5.962-5.396zM80.77 51.5c-6.942 0-10.728-2.315-10.728-3.504 0-.774 1.722-2.192 5.4-2.974 2.475 2.408 4.312 3.839 4.43 3.931a1.464 1.464 0 001.796 0c.118-.092 1.955-1.523 4.43-3.93 1.638.349 3.058.86 4.051 1.465.844.515 1.349 1.079 1.349 1.508 0 1.19-3.787 3.504-10.728 3.504z"/><path d="M80.771 10.65c-4.705 0-8.533 3.828-8.533 8.534 0 4.705 3.828 8.532 8.533 8.532s8.533-3.827 8.533-8.532-3.828-8.533-8.533-8.533zm0 14.133a5.606 5.606 0 01-5.6-5.6c0-3.087 2.512-5.6 5.6-5.6 3.088 0 5.6 2.512 5.6 5.6 0 3.088-2.512 5.6-5.6 5.6zM61.75 46.531h-.67c-.487 0-.977.032-1.457.096a1.467 1.467 0 00.387 2.908 8.15 8.15 0 011.07-.07h.67a1.466 1.466 0 100-2.934zM56.902 90.527h-.007l-1.937.008a1.467 1.467 0 00.007 2.933h.006l1.937-.009a1.467 1.467 0 00-.006-2.932zM63.49 65.525h-1.937a1.466 1.466 0 000 2.933h1.937a1.466 1.466 0 100-2.933zM55.72 49.519a1.467 1.467 0 00-2.072-.084 11.03 11.03 0 00-1.478 1.67 1.466 1.466 0 102.382 1.712 8.103 8.103 0 011.084-1.226 1.466 1.466 0 00.084-2.072zM64.649 90.491h-.007l-1.936.009a1.467 1.467 0 00.006 2.933h.007l1.936-.009a1.466 1.466 0 00-.006-2.933zM49.155 90.562h-.007l-1.937.009a1.467 1.467 0 00.007 2.932h.006l1.937-.008a1.467 1.467 0 00-.006-2.933zM56.803 64.293c-.461-.291-.895-.63-1.288-1.009a1.467 1.467 0 00-2.033 2.114c.537.516 1.127.979 1.756 1.375a1.465 1.465 0 101.565-2.48zM53.198 59.04a8.1 8.1 0 01-.148-1.545v-.081c.01-.81-.64-1.474-1.45-1.484h-.017c-.802 0-1.456.645-1.466 1.45v.115c0 .708.068 1.417.202 2.107a1.467 1.467 0 102.879-.561zM71.237 65.525H69.3a1.467 1.467 0 000 2.933h1.937a1.466 1.466 0 100-2.933zM94.78 68.51a13.953 13.953 0 00-1.795-1.203 1.466 1.466 0 10-1.44 2.555c.495.28.971.599 1.417.95a1.464 1.464 0 002.06-.242 1.466 1.466 0 00-.242-2.06zM89.337 91.542a1.467 1.467 0 00-1.653-1.252c-.48.066-.972.101-1.463.103l-.274.002a1.467 1.467 0 00.007 2.933h.007l.274-.002a14.01 14.01 0 001.85-.13 1.466 1.466 0 001.252-1.654zM95.809 87.418a1.466 1.466 0 00-2.073-.05c-.412.392-.857.755-1.324 1.079a1.467 1.467 0 001.67 2.41c.592-.41 1.156-.87 1.677-1.365a1.466 1.466 0 00.05-2.074zM98.663 80.297a1.467 1.467 0 00-1.713 1.17 10.988 10.988 0 01-.445 1.645 1.467 1.467 0 002.763.985c.241-.677.431-1.38.565-2.088a1.467 1.467 0 00-1.17-1.712zM99.534 75.583a13.84 13.84 0 00-.76-2.028 1.467 1.467 0 00-2.657 1.24 10.9 10.9 0 01.598 1.597 1.467 1.467 0 002.819-.81zM78.984 65.525h-1.936a1.467 1.467 0 000 2.933h1.936a1.466 1.466 0 100-2.933zM72.396 90.456h-.007l-1.936.009a1.467 1.467 0 00.006 2.933h.007l1.937-.01a1.467 1.467 0 00-.007-2.932zM86.796 65.54c-.207-.01-.418-.015-.624-.015h-1.377a1.466 1.466 0 000 2.933h1.377a11.111 11.111 0 01.56.013 1.466 1.466 0 00.064-2.932zM80.143 90.42h-.007l-1.936.01a1.467 1.467 0 00.006 2.932h.007l1.937-.008a1.467 1.467 0 00-.007-2.933z"/></g><defs><clipPath id="dclip0"><path fill="#fff" d="M0 0h100v100H0z"/></clipPath></defs></svg><svg fill="none" viewBox="0 0 28 28" id="email" xmlns="http://www.w3.org/2000/svg"><path d="M23.333 4.667H4.667A2.33 2.33 0 002.345 7l-.012 14a2.34 2.34 0 002.334 2.333h18.666A2.34 2.34 0 0025.667 21V7a2.34 2.34 0 00-2.334-2.333zm0 4.666L14 15.166 4.667 9.333V7L14 12.833 23.333 7v2.333z" fill="#fff"/></svg><svg fill="none" viewBox="0 0 28 28" id="facebook" xmlns="http://www.w3.org/2000/svg"><g clip-path="url(#fclip0)"><path d="M18.663 4.65h2.556V.196C20.78.137 19.262 0 17.495 0c-3.685 0-6.21 2.318-6.21 6.579V10.5H7.218v4.977h4.067V28h4.986V15.478h3.903l.62-4.977H16.27V7.072c.002-1.438.389-2.423 2.393-2.423z" fill="#fff"/></g><defs><clipPath id="fclip0"><path fill="#fff" d="M0 0h28v28H0z"/></clipPath></defs></svg><svg fill="none" viewBox="0 0 28 28" id="instagram" xmlns="http://www.w3.org/2000/svg"><g clip-path="url(#gclip0)" fill="#fff"><path d="M27.973 8.232c-.066-1.488-.307-2.51-.651-3.397a6.833 6.833 0 00-1.62-2.483A6.892 6.892 0 0023.226.738c-.892-.344-1.91-.585-3.397-.65C18.33.016 17.853 0 14.052 0c-3.802 0-4.277.016-5.77.082-1.488.066-2.511.306-3.397.65A6.832 6.832 0 002.4 2.353 6.894 6.894 0 00.788 4.83C.443 5.722.202 6.739.137 8.227.066 9.725.049 10.2.049 14.003c0 3.801.017 4.277.082 5.77.066 1.488.307 2.511.651 3.397.356.941.908 1.783 1.62 2.483a6.89 6.89 0 002.477 1.614c.892.345 1.909.585 3.397.65 1.493.067 1.97.083 5.77.083 3.802 0 4.278-.016 5.771-.082 1.488-.066 2.51-.306 3.397-.651a7.162 7.162 0 004.097-4.097c.344-.891.585-1.909.65-3.397.066-1.493.083-1.969.083-5.77 0-3.802-.006-4.278-.071-5.77zM25.45 19.664c-.06 1.367-.29 2.106-.481 2.598a4.645 4.645 0 01-2.659 2.659c-.492.191-1.236.42-2.598.48-1.477.067-1.92.083-5.656.083-3.736 0-4.184-.016-5.655-.082-1.368-.06-2.106-.29-2.599-.481a4.31 4.31 0 01-1.608-1.045 4.354 4.354 0 01-1.044-1.608c-.192-.493-.422-1.236-.482-2.598-.065-1.477-.082-1.92-.082-5.656 0-3.736.017-4.185.082-5.656.06-1.368.29-2.106.482-2.598.224-.607.58-1.16 1.05-1.608.454-.465 1-.821 1.608-1.045.492-.192 1.236-.421 2.598-.481 1.477-.066 1.92-.083 5.656-.083 3.741 0 4.184.017 5.656.083 1.367.06 2.106.29 2.598.48.607.225 1.16.58 1.608 1.046.465.454.82 1 1.045 1.608.191.492.42 1.236.481 2.598.066 1.477.082 1.92.082 5.656 0 3.736-.016 4.173-.082 5.65z"/><path d="M14.052 6.81a7.195 7.195 0 00-7.193 7.192 7.195 7.195 0 007.193 7.193 7.194 7.194 0 007.193-7.193 7.194 7.194 0 00-7.193-7.192zm0 11.858a4.667 4.667 0 11.001-9.333 4.667 4.667 0 01-.001 9.333zM23.209 6.526a1.68 1.68 0 11-3.36 0 1.68 1.68 0 013.36 0z"/></g><defs><clipPath id="gclip0"><path fill="#fff" d="M0 0h28v28H0z"/></clipPath></defs></svg><svg fill="none" viewBox="0 0 77 42" id="logo" xmlns="http://www.w3.org/2000/svg"><path d="M47.79 9.42L35.582 36.5h-1.048L46.61 9.802h-16.53V8.773h17.71v.648z" fill="#fff"/><path d="M7.793 26.263H5.318v5.496H1.354V15.831h6.644c2.023 0 3.6.42 4.73 1.258 1.13.83 1.696 2.006 1.696 3.528 0 1.13-.237 2.064-.711 2.802-.465.73-1.226 1.327-2.283 1.791l3.61 6.385v.164h-4.267l-2.98-5.496zm-2.475-3.185h2.68c1.65 0 2.475-.68 2.475-2.037 0-1.34-.862-2.01-2.584-2.01h-2.57v4.047zm26.018 1.039c0 1.558-.305 2.935-.916 4.129-.61 1.194-1.486 2.114-2.625 2.761-1.13.647-2.415.971-3.856.971-1.449 0-2.743-.319-3.882-.957a6.57 6.57 0 01-2.625-2.72c-.62-1.186-.935-2.548-.944-4.089v-.71c0-1.568.306-2.95.916-4.143.611-1.194 1.481-2.115 2.612-2.762 1.13-.656 2.429-.984 3.896-.984 1.44 0 2.72.319 3.842.957 1.13.638 2.005 1.554 2.625 2.748.629 1.185.948 2.552.957 4.101v.698zm-3.965-.63c0-1.512-.305-2.674-.916-3.485-.601-.812-1.45-1.217-2.543-1.217-1.13 0-1.991.405-2.584 1.216-.583.812-.875 1.974-.875 3.487v.629c0 1.485.3 2.643.902 3.472.602.83 1.463 1.245 2.584 1.245 1.058 0 1.892-.41 2.502-1.231.62-.82.93-1.996.93-3.527v-.588zm19.524-7.655V26.14c0 1.814-.588 3.24-1.764 4.28-1.176 1.038-2.812 1.558-4.908 1.558-2.088 0-3.728-.52-4.922-1.559-1.194-1.039-1.791-2.46-1.791-4.265V15.832h3.965v10.513c.054 1.64.97 2.461 2.748 2.461.884 0 1.554-.205 2.01-.615.464-.41.697-1.085.697-2.023V15.832h3.965zM62.85 19.03h-5.168v12.728h-3.965V19.031h-5.072v-3.2H62.85v3.2zm12.373 6.097h-6.576v3.46h7.738v3.171H64.682V15.831h11.716v3.2h-7.751v2.912h6.576v3.185z" fill="#fff"/></svg><svg fill="none" viewBox="0 0 79 78" id="numbers__item-1" xmlns="http://www.w3.org/2000/svg"><g clip-path="url(#iclip0)" fill="#000"><path d="M74.853 39.582h-16.22v-2.859c0-1.07-.87-1.94-1.94-1.94H43.588c-1.07 0-1.94.87-1.94 1.94v2.859h-2.123V28.943a3.786 3.786 0 00-3.782-3.782H31.12V4.565a2.27 2.27 0 00-2.267-2.267h-1.767v-.515C27.086.8 26.286 0 25.302 0h-8.869c-.982 0-1.782.8-1.782 1.783v.515h-1.768a2.27 2.27 0 00-2.266 2.267V25.16H4.61a3.787 3.787 0 00-3.783 3.782v11.77a1.145 1.145 0 102.29 0v-11.77c0-.823.67-1.492 1.493-1.492h31.133c.823 0 1.492.67 1.492 1.492v39.99c0 .823-.67 1.493-1.492 1.493H4.61c-.823 0-1.493-.67-1.493-1.492v-23.64a1.145 1.145 0 10-2.29 0v23.64a3.787 3.787 0 003.783 3.782h2.328v4.135a1.145 1.145 0 102.29 0v-4.135h12.88v1.964c0 1.83 1.49 3.32 3.321 3.32h49.424c1.83 0 3.32-1.49 3.32-3.32V42.902c0-1.831-1.49-3.32-3.32-3.32zM16.94 2.29h7.854v2.305h-7.854V2.29zm-4.034 2.298h1.744v.515c0 .983.8 1.783 1.782 1.783h8.87c.983 0 1.782-.8 1.782-1.783v-.515h1.744v20.573H12.907V4.588zm53.68 37.284v33.675h-2.29V41.873h2.29zM39.526 68.934V41.872h10.616a1.145 1.145 0 100-2.29h-6.202v-2.508h12.404v2.508H54.72a1.145 1.145 0 100 2.29h7.285V75.71H33.415v-2.994h2.328a3.786 3.786 0 003.782-3.782zM24.4 74.68v-1.964h6.725v2.994H25.43c-.568 0-1.03-.462-1.03-1.03zm51.483 0c0 .568-.462 1.03-1.03 1.03h-5.974V41.872h5.975c.568 0 1.03.462 1.03 1.03V74.68z"/><path d="M44.76 67.186h8.462a2.57 2.57 0 002.567-2.568v-3.332a2.57 2.57 0 00-2.567-2.567H44.76a2.57 2.57 0 00-2.567 2.567v3.332a2.57 2.57 0 002.567 2.568zm-.277-5.9c0-.153.125-.277.277-.277h8.462c.152 0 .277.124.277.277v3.332a.277.277 0 01-.277.278H44.76a.277.277 0 01-.277-.278v-3.332zM10.54 64.519V33.358a1.145 1.145 0 10-2.29 0v31.16a1.145 1.145 0 102.29 0zM17.728 64.519V33.358a1.145 1.145 0 10-2.29 0v31.16a1.145 1.145 0 102.29 0zM24.915 64.519V33.358a1.145 1.145 0 10-2.29 0v31.16a1.145 1.145 0 102.29 0zM32.102 64.519V33.358a1.145 1.145 0 10-2.29 0v31.16a1.145 1.145 0 102.29 0z"/></g><defs><clipPath id="iclip0"><path fill="#fff" transform="translate(.5)" d="M0 0h78v78H0z"/></clipPath></defs></svg><svg fill="none" viewBox="0 0 78 75" id="numbers__item-2" xmlns="http://www.w3.org/2000/svg"><path d="M38.717 40.412h.517c4.733-.078 8.561-1.677 11.388-4.737 6.218-6.74 5.185-18.296 5.072-19.398C55.29 7.999 51.218 4.038 47.86 2.19 45.356.808 42.432.062 39.17 0h-.275c-1.793 0-5.314.28-8.69 2.128-3.392 1.848-7.527 5.808-7.93 14.149-.114 1.102-1.148 12.658 5.071 19.398 2.81 3.06 6.639 4.66 11.371 4.737zm-12.13-23.747c0-.047.016-.093.016-.124.533-11.136 8.755-12.332 12.276-12.332h.194c4.36.093 11.775 1.802 12.276 12.332 0 .046 0 .093.016.124.016.109 1.146 10.67-3.99 16.23-2.035 2.205-4.749 3.293-8.319 3.324h-.161c-3.553-.031-6.283-1.119-8.302-3.324-5.12-5.53-4.022-16.137-4.006-16.23z" fill="#000"/><path d="M72.169 59.578v-.047c0-.124-.016-.248-.016-.388-.097-3.075-.307-10.266-7.317-12.565-.049-.016-.113-.031-.162-.047-7.285-1.786-13.342-5.824-13.406-5.87-.986-.668-2.342-.435-3.037.512-.694.948-.452 2.252.533 2.92.275.186 6.703 4.488 14.747 6.476 3.764 1.29 4.184 5.157 4.297 8.698 0 .14 0 .264.016.388.016 1.398-.08 3.557-.34 4.8-2.616 1.428-12.873 6.367-28.476 6.367-15.539 0-25.86-4.954-28.493-6.383-.258-1.243-.371-3.401-.339-4.8 0-.123.016-.248.016-.388.113-3.54.533-7.408 4.297-8.697 8.044-1.988 14.472-6.306 14.747-6.477.985-.667 1.227-1.972.533-2.92-.695-.947-2.051-1.18-3.037-.512-.064.047-6.09 4.085-13.406 5.87a2.057 2.057 0 00-.162.047c-7.01 2.315-7.22 9.506-7.317 12.565 0 .14 0 .264-.016.389v.046c-.016.808-.032 4.954.824 7.036.161.403.452.745.84.978.484.31 12.098 7.424 31.53 7.424 19.43 0 31.044-7.129 31.529-7.424a2.1 2.1 0 00.84-.978c.807-2.066.791-6.213.775-7.02z" fill="#000"/></svg><svg fill="none" viewBox="0 0 79 78" id="numbers__item-3" xmlns="http://www.w3.org/2000/svg"><g clip-path="url(#kclip0)" fill="#000"><path d="M39.5 0a39.059 39.059 0 00-24.828 8.923 1.143 1.143 0 001.455 1.761 36.768 36.768 0 0120.458-8.282l-4.89 5.711a7.333 7.333 0 00-1.762 4.767v3.924c0 1.512-.67 2.931-1.837 3.893a7.325 7.325 0 00-.94.928 7.389 7.389 0 00-3.397-.822c-4.1 0-7.435 3.335-7.435 7.435 0 4.544 4.81 11.022 6.284 12.899a1.464 1.464 0 002.303 0c.772-.984 2.462-3.233 3.895-5.805a20.081 20.081 0 003.75 4.127 1.143 1.143 0 00.325 2.238h1.747c.212 0 .41-.058.58-.159.354.409.532.933.498 1.493a2.072 2.072 0 01-1.05 1.698 19.003 19.003 0 00-5.953 5.364l-1.53 2.114a1.143 1.143 0 001.85 1.34l1.53-2.115a16.734 16.734 0 015.243-4.723 4.394 4.394 0 002.001-5.113c.142.065.3.1.466.1.47.002.932.074 1.374.215a1.142 1.142 0 10.693-2.178 6.847 6.847 0 00-2.065-.321c-.547 0-1.005.385-1.116.9a4.4 4.4 0 00-.914-.922l-1.528-1.143A17.73 17.73 0 0130 32.942c.709-1.624 1.194-3.261 1.194-4.704a7.411 7.411 0 00-2.186-5.26c.166-.185.347-.358.54-.517a7.305 7.305 0 002.67-5.657V12.88c0-1.203.43-2.367 1.212-3.28l6.263-7.314a36.512 36.512 0 0121.072 6.8l-.391 1.02a14.183 14.183 0 01-5.363 6.735 3.039 3.039 0 00-1.326 2.178 3.038 3.038 0 00.796 2.421l.253.273a8.985 8.985 0 011.835 9.371 3.404 3.404 0 00.305 3.048c.318.505.75.907 1.253 1.183a7.393 7.393 0 00-1.403 4.341 1.142 1.142 0 102.285 0c0-2.84 2.31-5.15 5.15-5.15 2.84 0 5.15 2.31 5.15 5.15 0 2.79-2.644 7.29-5.15 10.643-1.323-1.78-2.716-3.9-3.709-5.903a1.142 1.142 0 00-2.158.65 4.397 4.397 0 01-1.486-.375l-1.609-.724a4.319 4.319 0 00-5.453 1.69l-1.74 2.857c-.48.787-.8 1.628-.968 2.486a1.143 1.143 0 00-.136 1.23 7.466 7.466 0 002.298 5.579l2.022 1.954a1.94 1.94 0 01-.294 3.026 8.268 8.268 0 00-3.745 6.062 4.836 4.836 0 01-1.104 2.586l-3.493 4.17c-3.627.303-7.292.07-10.84-.697v-1.928a4.993 4.993 0 00-2.905-4.528L23.529 66a4.997 4.997 0 00-3.98-.075l-3.384 1.4C8 60.587 2.785 50.39 2.785 39c0-2.82.322-5.604.947-8.304a15.637 15.637 0 006.916-1.984l1.05-.589c.007-.005.012-.006.013-.007a.07.07 0 01.028.02l-.002.017-.863 3.272a9.72 9.72 0 001.49 8.148l2.115 2.964c.558.78.72 1.794.433 2.71l-.607 1.942a11.279 11.279 0 005.434 13.294 4.006 4.006 0 005.119-1.18l.985-1.36a1.143 1.143 0 00-1.851-1.34l-.986 1.361a1.714 1.714 0 01-2.189.505 8.99 8.99 0 01-4.331-10.598l.607-1.942a5.396 5.396 0 00-.754-4.72l-2.114-2.963a7.442 7.442 0 01-1.142-6.238l.863-3.272a2.308 2.308 0 00-.821-2.418 2.308 2.308 0 00-2.547-.187l-1.049.589a13.354 13.354 0 01-5.174 1.637 36.627 36.627 0 017.984-14.061 1.143 1.143 0 00-1.69-1.538A38.907 38.907 0 00.5 39c0 21.555 17.444 39 39 39 21.555 0 39-17.444 39-39 0-21.555-17.444-39-39-39zM23.76 38.882c-2.506-3.353-5.15-7.854-5.15-10.644 0-2.84 2.31-5.15 5.15-5.15 2.839 0 5.149 2.31 5.149 5.15 0 2.79-2.644 7.29-5.15 10.644zm-3.337 29.155a2.704 2.704 0 012.154.04l5.31 2.434a2.702 2.702 0 011.571 2.45v1.358a36.595 36.595 0 01-11.198-5.387l2.163-.895zM74.735 49.33L69.7 45.829c1.07-2.08 1.895-4.292 1.895-6.173a7.55 7.55 0 00-.02-.53c.443.27.876.554 1.297.852l3.202 2.266a36.48 36.48 0 01-1.338 7.087zM45.93 75.15l1.899-2.266a7.114 7.114 0 001.624-3.804 5.992 5.992 0 012.713-4.393c2.284-1.477 2.601-4.697.642-6.589l-2.022-1.954a5.204 5.204 0 01-1.552-3.044c.145.01.296.014.407.014a1.143 1.143 0 00.005-2.285c-.071 0-.142-.003-.213-.006.126-.392.3-.775.522-1.141l1.74-2.858a2.032 2.032 0 012.565-.794l1.608.724a6.703 6.703 0 003.551.538c1.375 2.365 2.898 4.384 3.588 5.262a1.464 1.464 0 002.303 0 48.431 48.431 0 003.267-4.722l5.412 3.762c-4.437 12.111-15.081 21.254-28.06 23.556zm30.28-35.608l-2.019-1.43a24.93 24.93 0 00-3.549-2.093 7.44 7.44 0 00-6.483-3.799 7.392 7.392 0 00-4.126 1.253l-.35-.029a1.146 1.146 0 01-.977-1.55 11.256 11.256 0 00-2.299-11.739l-.253-.273a.748.748 0 01-.199-.602.749.749 0 01.33-.543 16.456 16.456 0 006.223-7.814l.151-.393c8.453 6.888 13.72 17.39 13.552 29.011z"/><path d="M23.76 24.626a3.616 3.616 0 00-3.613 3.612 3.616 3.616 0 003.612 3.612 3.616 3.616 0 003.612-3.612 3.616 3.616 0 00-3.612-3.612zm0 4.939a1.328 1.328 0 01-1.327-1.327c0-.732.595-1.327 1.326-1.327a1.328 1.328 0 010 2.653zM67.77 39.656a3.616 3.616 0 00-3.611-3.612 3.616 3.616 0 00-3.612 3.612 3.616 3.616 0 003.612 3.612 3.616 3.616 0 003.611-3.612zm-4.938 0a1.328 1.328 0 012.653 0c0 .732-.595 1.327-1.326 1.327a1.328 1.328 0 01-1.327-1.327zM29.244 41.697a1.143 1.143 0 100-2.286h-.915a1.142 1.142 0 100 2.285h.915zM43.806 42.25a1.143 1.143 0 00-1.851 1.34c.274.379.487.795.633 1.237a1.143 1.143 0 002.17-.718 6.822 6.822 0 00-.952-1.86zM43.888 46.958c-.6.197-.926.842-.73 1.442.219.666.538 1.292.948 1.862a1.142 1.142 0 101.854-1.336 4.533 4.533 0 01-.63-1.238 1.143 1.143 0 00-1.442-.73zM55.025 50.83h-1.746a1.142 1.142 0 100 2.285h1.746a1.142 1.142 0 100-2.285zM59.588 50.83h-.914a1.143 1.143 0 100 2.285h.914a1.142 1.142 0 100-2.285z"/></g><defs><clipPath id="kclip0"><path fill="#fff" transform="translate(.5)" d="M0 0h78v78H0z"/></clipPath></defs></svg><svg fill="none" viewBox="0 0 28 28" id="phone" xmlns="http://www.w3.org/2000/svg"><path d="M7.723 12.588a17.673 17.673 0 007.689 7.689l2.566-2.567a1.16 1.16 0 011.19-.28c1.307.432 2.719.665 4.165.665a1.17 1.17 0 011.167 1.167v4.071a1.17 1.17 0 01-1.167 1.167C12.378 24.5 3.5 15.622 3.5 4.667A1.17 1.17 0 014.667 3.5H8.75a1.17 1.17 0 011.167 1.167c0 1.458.233 2.858.665 4.165a1.17 1.17 0 01-.292 1.19l-2.567 2.566z" fill="#fff"/></svg><svg fill="none" viewBox="0 0 39 39" id="star" xmlns="http://www.w3.org/2000/svg"><g filter="url(#mfilter0_d)"><path d="M19.5 25.186l9.012 5.44-2.391-10.253 7.962-6.898-10.485-.89L19.5 2.918l-4.098 9.668-10.485.89 7.962 6.898-2.391 10.252 9.012-5.44z" fill="#fff"/></g><defs><filter id="mfilter0_d" x="-2" y="0" width="43" height="43" filterUnits="userSpaceOnUse" color-interpolation-filters="sRGB"><feFlood flood-opacity="0" result="BackgroundImageFix"/><feColorMatrix in="SourceAlpha" values="0 0 0 0 0 0 0 0 0 0 0 0 0 0 0 0 0 0 127 0"/><feOffset dy="4"/><feGaussianBlur stdDeviation="2"/><feColorMatrix values="0 0 0 0 0 0 0 0 0 0 0 0 0 0 0 0 0 0 0.25 0"/><feBlend in2="BackgroundImageFix" result="effect1_dropShadow"/><feBlend in="SourceGraphic" in2="effect1_dropShadow" result="shape"/></filter></defs></svg><svg fill="none" viewBox="0 0 39 39" id="star--not" xmlns="http://www.w3.org/2000/svg"><g filter="url(#nfilter0_d)"><path d="M34.083 13.475l-10.485-.904L19.5 2.917l-4.098 9.668-10.485.89 7.962 6.898-2.391 10.252 9.012-5.44 9.012 5.44-2.377-10.252 7.948-6.898zM19.5 22.458l-5.483 3.31 1.458-6.24-4.842-4.2 6.388-.555L19.5 8.896l2.494 5.892 6.387.554-4.841 4.2 1.458 6.241-5.498-3.325z" fill="#fff"/></g><defs><filter id="nfilter0_d" x="-2" y="0" width="43" height="43" filterUnits="userSpaceOnUse" color-interpolation-filters="sRGB"><feFlood flood-opacity="0" result="BackgroundImageFix"/><feColorMatrix in="SourceAlpha" values="0 0 0 0 0 0 0 0 0 0 0 0 0 0 0 0 0 0 127 0"/><feOffset dy="4"/><feGaussianBlur stdDeviation="2"/><feColorMatrix values="0 0 0 0 0 0 0 0 0 0 0 0 0 0 0 0 0 0 0.25 0"/><feBlend in2="BackgroundImageFix" result="effect1_dropShadow"/><feBlend in="SourceGraphic" in2="effect1_dropShadow" result="shape"/></filter></defs></svg><svg fill="none" viewBox="0 0 28 28" id="twitter" xmlns="http://www.w3.org/2000/svg"><g clip-path="url(#oclip0)"><path d="M28 5.318c-1.041.457-2.15.76-3.308.907a5.708 5.708 0 002.526-3.173 11.472 11.472 0 01-3.64 1.39 5.739 5.739 0 00-9.93 3.925c0 .455.039.892.133 1.309C9.01 9.443 4.786 7.156 1.95 3.67a5.78 5.78 0 00-.785 2.902 5.749 5.749 0 002.55 4.77 5.668 5.668 0 01-2.594-.707v.064c0 2.789 1.99 5.106 4.599 5.64a5.731 5.731 0 01-1.505.189c-.368 0-.739-.021-1.087-.098.744 2.273 2.854 3.944 5.364 3.998a11.534 11.534 0 01-7.117 2.449c-.471 0-.923-.021-1.374-.079a16.16 16.16 0 008.806 2.576c10.563 0 16.338-8.75 16.338-16.334 0-.254-.009-.5-.021-.742A11.452 11.452 0 0028 5.319z" fill="#fff"/></g><defs><clipPath id="oclip0"><path fill="#fff" d="M0 0h28v28H0z"/></clipPath></defs></svg><svg fill="none" viewBox="0 0 28 28" id="vk" xmlns="http://www.w3.org/2000/svg"><g clip-path="url(#pclip0)"><path d="M23.234 15.2c-.453-.572-.323-.826 0-1.337.006-.006 3.743-5.17 4.128-6.92l.002-.002c.191-.638 0-1.107-.925-1.107h-3.061c-.78 0-1.139.402-1.331.853 0 0-1.56 3.73-3.764 6.15-.712.698-1.04.922-1.43.922-.19 0-.488-.224-.488-.862V6.941c0-.765-.218-1.107-.863-1.107h-4.814c-.489 0-.78.357-.78.69 0 .725 1.103.892 1.217 2.934v4.43c0 .97-.176 1.149-.567 1.149-1.04 0-3.566-3.747-5.063-8.034-.302-.832-.597-1.168-1.383-1.168H1.05c-.874 0-1.05.403-1.05.853 0 .796 1.04 4.752 4.84 9.979 2.531 3.567 6.096 5.5 9.34 5.5 1.95 0 2.187-.429 2.187-1.168 0-3.409-.176-3.73.8-3.73.453 0 1.232.224 3.052 1.944 2.08 2.04 2.422 2.954 3.587 2.954h3.061c.873 0 1.315-.429 1.06-1.276-.581-1.781-4.515-5.446-4.693-5.691z" fill="#fff"/></g><defs><clipPath id="pclip0"><path fill="#fff" d="M0 0h28v28H0z"/></clipPath></defs></svg></svg>